<svg width="1480" height="227" viewBox="0 0 1480 227" fill="none" xmlns="http://www.w3.org/2000/svg">
<rect width="1480" height="227" fill="white"/>
<path d="M1365.9 48V47.3425H1366.55V48H1365.9ZM1368.54 46.8955V46.4949H1369.81V46.8955H1368.54ZM1371.49 46.8955V46.4949H1372.76V46.8955H1371.49ZM1374.75 48V47.3425H1375.4V48H1374.75ZM1365.39 50.0651C1365.43 50.1404 1365.48 50.226 1365.53 50.3219C1365.59 50.4144 1365.65 50.5051 1365.71 50.5942C1365.78 50.6832 1365.83 50.7603 1365.89 50.8253V50.887H1365.58C1365.52 50.839 1365.46 50.7825 1365.39 50.7175C1365.32 50.649 1365.24 50.5788 1365.17 50.5068C1365.1 50.4315 1365.04 50.3596 1364.98 50.2911C1364.93 50.2226 1364.88 50.1644 1364.85 50.1164V50.0651H1365.39ZM1367.14 54V53.3425H1367.79V54H1367.14ZM1375.23 50.3322L1376.6 54H1376.16L1374.79 50.3322H1375.23ZM1371.04 56.3322L1372.41 60H1371.97L1370.6 56.3322H1371.04ZM1378.65 56.3322L1380.02 60H1379.57L1378.21 56.3322H1378.65ZM1374.75 66V65.3425H1375.4V66H1374.75ZM1382.84 62.3322L1384.21 66H1383.77L1382.4 62.3322H1382.84ZM1373.87 71.7226C1373.87 71.5959 1373.9 71.5068 1373.96 71.4555C1374.02 71.4041 1374.1 71.3784 1374.18 71.3784C1374.27 71.3784 1374.35 71.4041 1374.41 71.4555C1374.47 71.5068 1374.5 71.5959 1374.5 71.7226C1374.5 71.8459 1374.47 71.9349 1374.41 71.9897C1374.35 72.0445 1374.27 72.0719 1374.18 72.0719C1374.1 72.0719 1374.02 72.0445 1373.96 71.9897C1373.9 71.9349 1373.87 71.8459 1373.87 71.7226ZM1373.87 69.524C1373.87 69.3938 1373.9 69.3031 1373.96 69.2517C1374.02 69.2003 1374.1 69.1747 1374.18 69.1747C1374.27 69.1747 1374.35 69.2003 1374.41 69.2517C1374.47 69.3031 1374.5 69.3938 1374.5 69.524C1374.5 69.6473 1374.47 69.7363 1374.41 69.7911C1374.35 69.8459 1374.27 69.8733 1374.18 69.8733C1374.1 69.8733 1374.02 69.8459 1373.96 69.7911C1373.9 69.7363 1373.87 69.6473 1373.87 69.524ZM1384.77 72V71.3425H1385.42V72H1384.77ZM1374.73 74.0959H1375.1V79.238H1374.73V74.0959ZM1389.17 78V77.3425H1389.83V78H1389.17ZM1374.73 80.0959H1375.1V85.238H1374.73V80.0959ZM1388.29 83.7226C1388.29 83.5959 1388.32 83.5068 1388.38 83.4555C1388.45 83.4041 1388.52 83.3784 1388.61 83.3784C1388.69 83.3784 1388.77 83.4041 1388.83 83.4555C1388.9 83.5068 1388.93 83.5959 1388.93 83.7226C1388.93 83.8459 1388.9 83.9349 1388.83 83.9897C1388.77 84.0445 1388.69 84.0719 1388.61 84.0719C1388.52 84.0719 1388.45 84.0445 1388.38 83.9897C1388.32 83.9349 1388.29 83.8459 1388.29 83.7226ZM1388.29 81.524C1388.29 81.3938 1388.32 81.3031 1388.38 81.2517C1388.45 81.2003 1388.52 81.1747 1388.61 81.1747C1388.69 81.1747 1388.77 81.2003 1388.83 81.2517C1388.9 81.3031 1388.93 81.3938 1388.93 81.524C1388.93 81.6473 1388.9 81.7363 1388.83 81.7911C1388.77 81.8459 1388.69 81.8733 1388.61 81.8733C1388.52 81.8733 1388.45 81.8459 1388.38 81.7911C1388.32 81.7363 1388.29 81.6473 1388.29 81.524ZM1374.73 86.0959H1375.1V91.238H1374.73V86.0959ZM1389.15 86.0959H1389.52V91.238H1389.15V86.0959ZM1233.15 96V95.3425H1233.81V96H1233.15ZM1236.1 96V95.3425H1236.76V96H1236.1ZM1239.05 96V95.3425H1239.71V96H1239.05ZM1243.04 96.7911H1240.74V96.4623H1243.04V96.7911ZM1251.02 96.7911H1248.72V96.4623H1251.02V96.7911ZM1253.09 96.7911H1250.79V96.4623H1253.09V96.7911ZM1255.17 96.7911H1252.87V96.4623H1255.17V96.7911ZM1371.23 92.0959H1371.61V97.238H1371.23V92.0959ZM1385.66 92.0959H1386.03V97.238H1385.66V92.0959ZM1229.69 98.0651C1229.73 98.1404 1229.78 98.226 1229.83 98.3219C1229.89 98.4144 1229.95 98.5051 1230.01 98.5942C1230.08 98.6832 1230.14 98.7603 1230.19 98.8253V98.887H1229.88C1229.83 98.839 1229.76 98.7825 1229.69 98.7175C1229.62 98.649 1229.55 98.5788 1229.47 98.5068C1229.41 98.4315 1229.34 98.3596 1229.28 98.2911C1229.23 98.2226 1229.19 98.1644 1229.16 98.1164V98.0651H1229.69ZM1231.44 102V101.342H1232.1V102H1231.44ZM1233.96 98.3322L1233.86 99.6575H1233.58L1233.47 98.3322H1233.96ZM1234.9 98.3322L1234.8 99.6575H1234.52L1234.41 98.3322H1234.9ZM1235.85 98.3322L1235.75 99.6575H1235.47L1235.36 98.3322H1235.85ZM1236.79 98.3322L1236.69 99.6575H1236.41L1236.3 98.3322H1236.79ZM1238.17 102V101.342H1238.83V102H1238.17ZM1240.62 98.0651C1240.65 98.1404 1240.7 98.226 1240.76 98.3219C1240.81 98.4144 1240.87 98.5051 1240.94 98.5942C1241 98.6832 1241.06 98.7603 1241.11 98.8253V98.887H1240.81C1240.75 98.839 1240.68 98.7825 1240.61 98.7175C1240.54 98.649 1240.47 98.5788 1240.4 98.5068C1240.33 98.4315 1240.26 98.3596 1240.21 98.2911C1240.15 98.2226 1240.11 98.1644 1240.08 98.1164V98.0651H1240.62ZM1241.93 98.3322L1241.83 99.6575H1241.55L1241.45 98.3322H1241.93ZM1242.88 98.3322L1242.78 99.6575H1242.5L1242.39 98.3322H1242.88ZM1243.83 98.3322L1243.73 99.6575H1243.44L1243.34 98.3322H1243.83ZM1244.78 98.3322L1244.68 99.6575H1244.39L1244.29 98.3322H1244.78ZM1245.73 98.3322L1245.62 99.6575H1245.34L1245.24 98.3322H1245.73ZM1246.67 98.3322L1246.56 99.6575H1246.28L1246.18 98.3322H1246.67ZM1247.62 98.3322L1247.52 99.6575H1247.23L1247.13 98.3322H1247.62ZM1248.56 98.3322L1248.46 99.6575H1248.17L1248.07 98.3322H1248.56ZM1249.63 100.896V100.495H1250.9V100.896H1249.63ZM1252.58 100.896V100.495H1253.85V100.896H1252.58ZM1255.84 102V101.342H1256.49V102H1255.84ZM1258.79 102V101.342H1259.44V102H1258.79ZM1262.78 102.791H1260.48V102.462H1262.78V102.791ZM1264.86 102.791H1262.55V102.462H1264.86V102.791ZM1266.93 102.791H1264.63V102.462H1266.93V102.791ZM1356.45 98.0959H1356.82V103.238H1356.45V98.0959ZM1370.87 98.0959H1371.24V103.238H1370.87V98.0959ZM1230.2 107.974V107.358H1230.86V108.087C1230.86 108.55 1230.53 108.791 1230.01 108.791V108.483C1230.3 108.483 1230.51 108.416 1230.51 108.092V107.974H1230.2ZM1232.85 106.896V106.495H1234.11V106.896H1232.85ZM1235.34 104.332L1236.71 108H1236.27L1234.9 104.332H1235.34ZM1242.95 104.332L1244.32 108H1243.87L1242.51 104.332H1242.95ZM1283.33 104.332L1283.23 105.658H1282.95L1282.84 104.332H1283.33ZM1284.27 104.332L1284.17 105.658H1283.89L1283.78 104.332H1284.27ZM1285.22 104.332L1285.12 105.658H1284.84L1284.74 104.332H1285.22ZM1286.16 104.332L1286.06 105.658H1285.78L1285.68 104.332H1286.16ZM1287.24 106.896V106.495H1288.5V106.896H1287.24ZM1290.49 108V107.342H1291.15V108H1290.49ZM1293.44 108V107.342H1294.1V108H1293.44ZM1296.39 108V107.342H1297.05V108H1296.39ZM1300.38 108.791H1298.08V108.462H1300.38V108.791ZM1302.46 108.791H1300.16V108.462H1302.46V108.791ZM1331.09 108.791H1328.79V108.462H1331.09V108.791ZM1333.17 108.791H1330.86V108.462H1333.17V108.791ZM1335.24 108.791H1332.94V108.462H1335.24V108.791ZM1337.32 108.791H1335.02V108.462H1337.32V108.791ZM1339.4 108.791H1337.1V108.462H1339.4V108.791ZM1341.47 108.791H1339.17V108.462H1341.47V108.791ZM1343.55 108.791H1341.25V108.462H1343.55V108.791ZM1345.63 108.791H1343.33V108.462H1345.63V108.791ZM1347.71 108.791H1345.4V108.462H1347.71V108.791ZM1349.78 108.791H1347.48V108.462H1349.78V108.791ZM1351.86 108.791H1349.56V108.462H1351.86V108.791ZM1353.94 108.791H1351.64V108.462H1353.94V108.791ZM1356.01 108.791H1353.71V108.462H1356.01V108.791ZM1357.66 104.332L1356.29 108H1355.85L1357.22 104.332H1357.66ZM1370.53 104.096H1370.91V109.238H1370.53V104.096ZM1230.81 110.332L1229.44 114H1229L1230.37 110.332H1230.81ZM1234.35 110.065C1234.39 110.14 1234.43 110.226 1234.49 110.322C1234.55 110.414 1234.61 110.505 1234.67 110.594C1234.73 110.683 1234.79 110.76 1234.84 110.825V110.887H1234.54C1234.48 110.839 1234.42 110.783 1234.35 110.717C1234.27 110.649 1234.2 110.579 1234.13 110.507C1234.06 110.431 1234 110.36 1233.94 110.291C1233.88 110.223 1233.84 110.164 1233.81 110.116V110.065H1234.35ZM1238.62 110.332L1238.51 111.658H1238.23L1238.13 110.332H1238.62ZM1239.56 110.332L1239.45 111.658H1239.17L1239.07 110.332H1239.56ZM1243.46 110.332L1243.36 111.658H1243.07L1242.97 110.332H1243.46ZM1303.33 110.065C1303.37 110.14 1303.41 110.226 1303.47 110.322C1303.53 110.414 1303.59 110.505 1303.65 110.594C1303.71 110.683 1303.77 110.76 1303.82 110.825V110.887H1303.52C1303.46 110.839 1303.4 110.783 1303.32 110.717C1303.25 110.649 1303.18 110.579 1303.11 110.507C1303.04 110.431 1302.98 110.36 1302.92 110.291C1302.86 110.223 1302.82 110.164 1302.79 110.116V110.065H1303.33ZM1304.65 110.332L1304.54 111.658H1304.26L1304.16 110.332H1304.65ZM1305.59 110.332L1305.48 111.658H1305.2L1305.1 110.332H1305.59ZM1306.54 110.332L1306.43 111.658H1306.15L1306.05 110.332H1306.54ZM1307.48 110.332L1307.37 111.658H1307.09L1306.99 110.332H1307.48ZM1308.43 110.332L1308.33 111.658H1308.04L1307.94 110.332H1308.43ZM1309.37 110.332L1309.27 111.658H1308.98L1308.88 110.332H1309.37ZM1310.32 110.332L1310.22 111.658H1309.93L1309.83 110.332H1310.32ZM1311.26 110.332L1311.16 111.658H1310.87L1310.77 110.332H1311.26ZM1312.21 110.332L1312.11 111.658H1311.83L1311.72 110.332H1312.21ZM1313.15 110.332L1313.05 111.658H1312.77L1312.66 110.332H1313.15ZM1314.1 110.332L1314 111.658H1313.72L1313.61 110.332H1314.1ZM1315.04 110.332L1314.94 111.658H1314.66L1314.55 110.332H1315.04ZM1315.99 110.332L1315.89 111.658H1315.61L1315.51 110.332H1315.99ZM1316.93 110.332L1316.83 111.658H1316.55L1316.45 110.332H1316.93ZM1317.89 110.332L1317.78 111.658H1317.5L1317.4 110.332H1317.89ZM1318.83 110.332L1318.72 111.658H1318.44L1318.34 110.332H1318.83ZM1373.3 114V113.342H1373.96V114H1373.3ZM1229.44 116.332L1230.81 120H1230.37L1229 116.332H1229.44ZM1390.57 116.764H1391.02V119.61H1392.69V120H1390.57V116.764ZM1229.16 124.592C1229.16 124.312 1229.18 124.038 1229.23 123.771C1229.29 123.503 1229.37 123.248 1229.48 123.005C1229.6 122.762 1229.74 122.538 1229.91 122.332H1230.34C1230.18 122.545 1230.05 122.774 1229.94 123.021C1229.83 123.267 1229.75 123.522 1229.69 123.786C1229.64 124.05 1229.61 124.317 1229.61 124.587C1229.61 124.851 1229.64 125.113 1229.69 125.373C1229.75 125.634 1229.83 125.884 1229.94 126.123C1230.04 126.366 1230.17 126.596 1230.33 126.812H1229.91C1229.74 126.61 1229.6 126.389 1229.48 126.149C1229.37 125.913 1229.29 125.663 1229.23 125.399C1229.18 125.135 1229.16 124.866 1229.16 124.592ZM1230.54 125.003L1232.48 124.197L1230.54 123.277V122.877L1232.96 124.084V124.341L1230.54 125.404V125.003ZM1392.81 122.332L1394.18 126H1393.73L1392.37 122.332H1392.81ZM1227.86 128.332L1226.49 132H1226.05L1227.42 128.332H1227.86ZM1396.35 128.332L1397.72 132H1397.27L1395.91 128.332H1396.35ZM1226.49 134.332L1227.86 138H1227.42L1226.05 134.332H1226.49ZM1230 138.791H1227.7V138.462H1230V138.791ZM1243.87 138.791H1241.57V138.462H1243.87V138.791ZM1245.95 138.791H1243.65V138.462H1245.95V138.791ZM1248.03 138.791H1245.73V138.462H1248.03V138.791ZM1249.06 138V137.342H1249.72V138H1249.06ZM1252.01 138V137.342H1252.67V138H1252.01ZM1254.66 136.896V136.495H1255.92V136.896H1254.66ZM1257.61 136.896V136.495H1258.87V136.896H1257.61ZM1260.56 136.896V136.495H1261.82V136.896H1260.56ZM1263.81 138V137.342H1264.47V138H1263.81ZM1395.93 134.764H1396.38V137.61H1398.05V138H1395.93V134.764ZM1232.64 140.065C1232.68 140.14 1232.73 140.226 1232.78 140.322C1232.84 140.414 1232.9 140.505 1232.96 140.594C1233.03 140.683 1233.09 140.76 1233.14 140.825V140.887H1232.83C1232.78 140.839 1232.71 140.783 1232.64 140.717C1232.57 140.649 1232.5 140.579 1232.42 140.507C1232.36 140.431 1232.29 140.36 1232.23 140.291C1232.18 140.223 1232.14 140.164 1232.11 140.116V140.065H1232.64ZM1234.08 142.896V142.495H1235.35V142.896H1234.08ZM1237.03 142.896V142.495H1238.3V142.896H1237.03ZM1239.86 140.332L1239.76 141.658H1239.48L1239.37 140.332H1239.86ZM1267.36 140.332L1267.26 141.658H1266.97L1266.87 140.332H1267.36ZM1268.73 144V143.342H1269.39V144H1268.73ZM1397.78 140.332L1399.15 144H1398.7L1397.34 140.332H1397.78ZM1277.4 150V149.342H1278.06V150H1277.4ZM1406.44 146.332L1407.81 150H1407.37L1406 146.332H1406.44ZM1409.94 150.791H1407.64V150.462H1409.94V150.791ZM1275.49 156.791H1273.19V156.462H1275.49V156.791ZM1277.14 152.332L1275.77 156H1275.33L1276.69 152.332H1277.14ZM1277.73 152.065C1277.76 152.14 1277.81 152.226 1277.87 152.322C1277.92 152.414 1277.98 152.505 1278.05 152.594C1278.11 152.683 1278.17 152.76 1278.22 152.825V152.887H1277.92C1277.86 152.839 1277.79 152.783 1277.72 152.717C1277.65 152.649 1277.58 152.579 1277.51 152.507C1277.44 152.431 1277.37 152.36 1277.32 152.291C1277.26 152.223 1277.22 152.164 1277.19 152.116V152.065H1277.73ZM1279.47 156V155.342H1280.13V156H1279.47ZM1408.76 152.065C1408.8 152.14 1408.85 152.226 1408.9 152.322C1408.96 152.414 1409.02 152.505 1409.08 152.594C1409.15 152.683 1409.21 152.76 1409.26 152.825V152.887H1408.95C1408.9 152.839 1408.83 152.783 1408.76 152.717C1408.69 152.649 1408.62 152.579 1408.54 152.507C1408.48 152.431 1408.41 152.36 1408.35 152.291C1408.3 152.223 1408.26 152.164 1408.23 152.116V152.065H1408.76ZM1410.51 156V155.342H1411.17V156H1410.51ZM1413.46 156V155.342H1414.12V156H1413.46ZM1417.45 156.791H1415.15V156.462H1417.45V156.791ZM1265.6 162V161.342H1266.26V162H1265.6ZM1268.12 158.332L1268.02 159.658H1267.74L1267.63 158.332H1268.12ZM1283.94 160.896V160.495H1285.21V160.896H1283.94ZM1287.2 162V161.342H1287.85V162H1287.2ZM1422.39 158.065C1422.43 158.14 1422.47 158.226 1422.53 158.322C1422.59 158.414 1422.65 158.505 1422.71 158.594C1422.77 158.683 1422.83 158.76 1422.88 158.825V158.887H1422.58C1422.52 158.839 1422.46 158.783 1422.39 158.717C1422.31 158.649 1422.24 158.579 1422.17 158.507C1422.1 158.431 1422.04 158.36 1421.98 158.291C1421.92 158.223 1421.88 158.164 1421.85 158.116V158.065H1422.39ZM1424.13 162V161.342H1424.79V162H1424.13ZM1263.26 164.332L1261.89 168H1261.45L1262.82 164.332H1263.26ZM1280.15 168.791H1277.84V168.462H1280.15V168.791ZM1282.22 168.791H1279.92V168.462H1282.22V168.791ZM1283.26 168V167.342H1283.92V168H1283.26ZM1285.9 166.896V166.495H1287.17V166.896H1285.9ZM1289.51 166.228L1290.42 164.764H1290.89L1289.7 166.649V168H1289.27V166.649L1288.08 164.764H1288.59L1289.51 166.228ZM1307.47 164.332L1306.1 168H1305.66L1307.03 164.332H1307.47ZM1308.14 164.332L1308.03 165.658H1307.75L1307.65 164.332H1308.14ZM1309.09 164.332L1308.98 165.658H1308.7L1308.6 164.332H1309.09ZM1310.03 164.332L1309.93 165.658H1309.65L1309.55 164.332H1310.03ZM1310.98 164.332L1310.88 165.658H1310.6L1310.49 164.332H1310.98ZM1311.93 164.332L1311.83 165.658H1311.54L1311.44 164.332H1311.93ZM1312.88 164.332L1312.78 165.658H1312.49L1312.39 164.332H1312.88ZM1313.95 166.896V166.495H1315.21V166.896H1313.95ZM1317.2 168V167.342H1317.86V168H1317.2ZM1320.15 168V167.342H1320.81V168H1320.15ZM1323.1 168V167.342H1323.76V168H1323.1ZM1327.1 168.791H1324.79V168.462H1327.1V168.791ZM1329.17 168.791H1326.87V168.462H1329.17V168.791ZM1331.25 168.791H1328.95V168.462H1331.25V168.791ZM1332.28 167.974V167.358H1332.94V168.087C1332.94 168.55 1332.62 168.791 1332.1 168.791V168.483C1332.38 168.483 1332.59 168.416 1332.59 168.092V167.974H1332.28ZM1335.23 168V167.342H1335.89V168H1335.23ZM1338.18 168V167.342H1338.84V168H1338.18ZM1341.13 168V167.342H1341.79V168H1341.13ZM1343.78 166.896V166.495H1345.04V166.896H1343.78ZM1346.73 166.896V166.495H1347.99V166.896H1346.73ZM1349.68 166.896V166.495H1350.94V166.896H1349.68ZM1352.63 166.896V166.495H1353.89V166.896H1352.63ZM1355.58 166.896V166.495H1356.84V166.896H1355.58ZM1358.53 166.896V166.495H1359.79V166.896H1358.53ZM1361.48 166.896V166.495H1362.74V166.896H1361.48ZM1364.43 166.896V166.495H1365.69V166.896H1364.43ZM1367.68 168V167.342H1368.34V168H1367.68ZM1370.63 168V167.342H1371.29V168H1370.63ZM1374.63 168.791H1372.33V168.462H1374.63V168.791ZM1411.04 164.096H1411.41V169.238H1411.04V164.096ZM1260.31 170.332L1258.94 174H1258.5L1259.87 170.332H1260.31ZM1271.3 174.791H1269V174.462H1271.3V174.791ZM1272.33 174V173.342H1272.99V174H1272.33ZM1274.85 170.332L1274.75 171.658H1274.47L1274.37 170.332H1274.85ZM1275.79 170.332L1275.69 171.658H1275.41L1275.31 170.332H1275.79ZM1288.95 170.096H1289.33V175.238H1288.95V170.096ZM1304.01 170.332L1302.64 174H1302.2L1303.57 170.332H1304.01ZM1351.87 170.332L1351.77 171.658H1351.49L1351.39 170.332H1351.87ZM1356.2 174V173.342H1356.86V174H1356.2ZM1376.09 170.332L1377.47 174H1377.02L1375.65 170.332H1376.09ZM1386.98 170.332L1386.88 171.658H1386.59L1386.49 170.332H1386.98ZM1388.05 172.896V172.495H1389.31V172.896H1388.05ZM1391 172.896V172.495H1392.26V172.896H1391ZM1393.95 172.896V172.495H1395.21V172.896H1393.95ZM1397.2 174V173.342H1397.86V174H1397.2ZM1400.15 174V173.342H1400.81V174H1400.15ZM1403.1 174V173.342H1403.76V174H1403.1ZM1407.1 174.791H1404.79V174.462H1407.1V174.791ZM1419.91 170.096H1420.28V175.238H1419.91V170.096ZM1257.36 176.332L1255.99 180H1255.55L1256.92 176.332H1257.36ZM1267.91 176.332L1266.55 180H1266.11L1267.47 176.332H1267.91ZM1287.32 176.332L1285.95 180H1285.51L1286.88 176.332H1287.32ZM1300.83 176.332L1299.46 180H1299.02L1300.38 176.332H1300.83ZM1350.16 180.791H1347.86V180.462H1350.16V180.791ZM1351.2 179.974V179.358H1351.85V180.087C1351.85 180.55 1351.53 180.791 1351.01 180.791V180.483C1351.29 180.483 1351.51 180.416 1351.51 180.092V179.974H1351.2ZM1354.15 180V179.342H1354.8V180H1354.15ZM1359.62 176.332L1359.52 177.658H1359.24L1359.13 176.332H1359.62ZM1372.8 179.974V179.358H1373.45V180.087C1373.45 180.55 1373.13 180.791 1372.61 180.791V180.483C1372.89 180.483 1373.1 180.416 1373.1 180.092V179.974H1372.8ZM1376.36 176.332L1374.99 180H1374.55L1375.91 176.332H1376.36ZM1409.88 176.096H1410.26V181.238H1409.88V176.096ZM1421.35 176.096H1421.73V181.238H1421.35V176.096ZM1255.99 182.332L1257.36 186H1256.92L1255.55 182.332H1255.99ZM1259.5 186.791H1257.2V186.462H1259.5V186.791ZM1260.53 185.974V185.358H1261.19V186.087C1261.19 186.55 1260.86 186.791 1260.35 186.791V186.483C1260.63 186.483 1260.84 186.416 1260.84 186.092V185.974H1260.53ZM1263.05 182.332L1262.95 183.658H1262.67L1262.57 182.332H1263.05ZM1280.22 186.791H1277.92V186.462H1280.22V186.791ZM1281.26 186V185.342H1281.91V186H1281.26ZM1283.78 182.332L1283.68 183.658H1283.39L1283.29 182.332H1283.78ZM1294.62 182.332L1293.25 186H1292.81L1294.17 182.332H1294.62ZM1337.62 182.332L1336.25 186H1335.81L1337.18 182.332H1337.62ZM1338.29 182.332L1338.19 183.658H1337.9L1337.8 182.332H1338.29ZM1339.24 182.332L1339.13 183.658H1338.85L1338.75 182.332H1339.24ZM1356.4 186.791H1354.1V186.462H1356.4V186.791ZM1357.44 185.974V185.358H1358.1V186.087C1358.1 186.55 1357.77 186.791 1357.25 186.791V186.483C1357.54 186.483 1357.75 186.416 1357.75 186.092V185.974H1357.44ZM1360.09 184.896V184.495H1361.35V184.896H1360.09ZM1362.91 182.332L1362.81 183.658H1362.53L1362.42 182.332H1362.91ZM1400.73 186.791H1398.43V186.462H1400.73V186.791ZM1401.74 182.096H1402.12V187.238H1401.74V182.096ZM1413.22 182.096H1413.59V187.238H1413.22V182.096ZM1279.92 188.332L1279.82 189.658H1279.54L1279.43 188.332H1279.92ZM1296.66 188.332L1295.29 192H1294.85L1296.22 188.332H1296.66ZM1341.5 188.065C1341.54 188.14 1341.58 188.226 1341.64 188.322C1341.69 188.414 1341.75 188.505 1341.82 188.594C1341.88 188.683 1341.94 188.76 1341.99 188.825V188.887H1341.69C1341.63 188.839 1341.56 188.783 1341.49 188.717C1341.42 188.649 1341.35 188.579 1341.28 188.507C1341.21 188.431 1341.14 188.36 1341.09 188.291C1341.03 188.223 1340.99 188.164 1340.96 188.116V188.065H1341.5ZM1342.94 190.896V190.495H1344.2V190.896H1342.94ZM1345.89 190.896V190.495H1347.15V190.896H1345.89ZM1348.84 190.896V190.495H1350.1V190.896H1348.84ZM1351.79 190.896V190.495H1353.05V190.896H1351.79ZM1354.74 190.896V190.495H1356V190.896H1354.74ZM1357.56 188.332L1357.46 189.658H1357.18L1357.08 188.332H1357.56ZM1358.51 188.332L1358.41 189.658H1358.13L1358.02 188.332H1358.51ZM1404.75 188.332L1403.38 192H1402.94L1404.31 188.332H1404.75ZM1420.57 188.096H1420.95V193.238H1420.57V188.096ZM1279.84 194.065C1279.88 194.14 1279.93 194.226 1279.98 194.322C1280.04 194.414 1280.1 194.505 1280.16 194.594C1280.23 194.683 1280.29 194.76 1280.34 194.825V194.887H1280.03C1279.98 194.839 1279.91 194.783 1279.84 194.717C1279.77 194.649 1279.7 194.579 1279.62 194.507C1279.55 194.431 1279.49 194.36 1279.43 194.291C1279.38 194.223 1279.34 194.164 1279.3 194.116V194.065H1279.84ZM1281.59 198V197.342H1282.24V198H1281.59ZM1284.54 198V197.342H1285.19V198H1284.54ZM1287.49 198V197.342H1288.14V198H1287.49ZM1290.13 196.896V196.495H1291.4V196.896H1290.13ZM1292.96 194.332L1292.86 195.658H1292.58L1292.47 194.332H1292.96ZM1403.07 196.967H1402.78L1402.65 194.332H1403.2L1403.07 196.967ZM1402.61 197.723C1402.61 197.596 1402.64 197.507 1402.7 197.455C1402.76 197.404 1402.83 197.378 1402.92 197.378C1403.01 197.378 1403.08 197.404 1403.14 197.455C1403.21 197.507 1403.24 197.596 1403.24 197.723C1403.24 197.846 1403.21 197.935 1403.14 197.99C1403.08 198.045 1403.01 198.072 1402.92 198.072C1402.83 198.072 1402.76 198.045 1402.7 197.99C1402.64 197.935 1402.61 197.846 1402.61 197.723ZM1405.7 198.791H1403.4V198.462H1405.7V198.791ZM1407.78 198.791H1405.48V198.462H1407.78V198.791ZM1409.85 198.791H1407.55V198.462H1409.85V198.791ZM1411.93 198.791H1409.63V198.462H1411.93V198.791ZM1414.01 198.791H1411.71V198.462H1414.01V198.791ZM1415.13 196.592C1415.13 196.866 1415.1 197.135 1415.05 197.399C1415 197.663 1414.91 197.913 1414.8 198.149C1414.69 198.389 1414.55 198.61 1414.38 198.812H1413.95C1414.11 198.596 1414.24 198.366 1414.35 198.123C1414.46 197.884 1414.54 197.634 1414.59 197.373C1414.65 197.113 1414.67 196.851 1414.67 196.587C1414.67 196.317 1414.65 196.05 1414.59 195.786C1414.54 195.522 1414.46 195.267 1414.35 195.021C1414.24 194.774 1414.11 194.545 1413.95 194.332H1414.38C1414.55 194.538 1414.69 194.762 1414.8 195.005C1414.91 195.248 1415 195.503 1415.05 195.771C1415.1 196.038 1415.13 196.312 1415.13 196.592Z" fill="#C2C2C2"/>
</svg>
