<svg width="1195" height="227" viewBox="0 0 1195 227" fill="none" xmlns="http://www.w3.org/2000/svg">
<rect width="1195" height="227" fill="white"/>
<path d="M1080.9 48V47.3425H1081.55V48H1080.9ZM1083.54 46.8955V46.4949H1084.81V46.8955H1083.54ZM1086.49 46.8955V46.4949H1087.76V46.8955H1086.49ZM1089.75 48V47.3425H1090.4V48H1089.75ZM1080.39 50.0651C1080.43 50.1404 1080.48 50.226 1080.53 50.3219C1080.59 50.4144 1080.65 50.5051 1080.71 50.5942C1080.78 50.6832 1080.83 50.7603 1080.89 50.8253V50.887H1080.58C1080.52 50.839 1080.46 50.7825 1080.39 50.7175C1080.32 50.649 1080.24 50.5788 1080.17 50.5068C1080.1 50.4315 1080.04 50.3596 1079.98 50.2911C1079.93 50.2226 1079.88 50.1644 1079.85 50.1164V50.0651H1080.39ZM1082.14 54V53.3425H1082.79V54H1082.14ZM1090.23 50.3322L1091.6 54H1091.16L1089.79 50.3322H1090.23ZM1086.04 56.3322L1087.41 60H1086.97L1085.6 56.3322H1086.04ZM1093.65 56.3322L1095.02 60H1094.57L1093.21 56.3322H1093.65ZM1089.75 66V65.3425H1090.4V66H1089.75ZM1097.84 62.3322L1099.21 66H1098.77L1097.4 62.3322H1097.84ZM1088.87 71.7226C1088.87 71.5959 1088.9 71.5068 1088.96 71.4555C1089.02 71.4041 1089.1 71.3784 1089.18 71.3784C1089.27 71.3784 1089.35 71.4041 1089.41 71.4555C1089.47 71.5068 1089.5 71.5959 1089.5 71.7226C1089.5 71.8459 1089.47 71.9349 1089.41 71.9897C1089.35 72.0445 1089.27 72.0719 1089.18 72.0719C1089.1 72.0719 1089.02 72.0445 1088.96 71.9897C1088.9 71.9349 1088.87 71.8459 1088.87 71.7226ZM1088.87 69.524C1088.87 69.3938 1088.9 69.3031 1088.96 69.2517C1089.02 69.2003 1089.1 69.1747 1089.18 69.1747C1089.27 69.1747 1089.35 69.2003 1089.41 69.2517C1089.47 69.3031 1089.5 69.3938 1089.5 69.524C1089.5 69.6473 1089.47 69.7363 1089.41 69.7911C1089.35 69.8459 1089.27 69.8733 1089.18 69.8733C1089.1 69.8733 1089.02 69.8459 1088.96 69.7911C1088.9 69.7363 1088.87 69.6473 1088.87 69.524ZM1099.77 72V71.3425H1100.42V72H1099.77ZM1089.73 74.0959H1090.1V79.238H1089.73V74.0959ZM1104.17 78V77.3425H1104.83V78H1104.17ZM1089.73 80.0959H1090.1V85.238H1089.73V80.0959ZM1103.29 83.7226C1103.29 83.5959 1103.32 83.5068 1103.38 83.4555C1103.45 83.4041 1103.52 83.3784 1103.61 83.3784C1103.69 83.3784 1103.77 83.4041 1103.83 83.4555C1103.9 83.5068 1103.93 83.5959 1103.93 83.7226C1103.93 83.8459 1103.9 83.9349 1103.83 83.9897C1103.77 84.0445 1103.69 84.0719 1103.61 84.0719C1103.52 84.0719 1103.45 84.0445 1103.38 83.9897C1103.32 83.9349 1103.29 83.8459 1103.29 83.7226ZM1103.29 81.524C1103.29 81.3938 1103.32 81.3031 1103.38 81.2517C1103.45 81.2003 1103.52 81.1747 1103.61 81.1747C1103.69 81.1747 1103.77 81.2003 1103.83 81.2517C1103.9 81.3031 1103.93 81.3938 1103.93 81.524C1103.93 81.6473 1103.9 81.7363 1103.83 81.7911C1103.77 81.8459 1103.69 81.8733 1103.61 81.8733C1103.52 81.8733 1103.45 81.8459 1103.38 81.7911C1103.32 81.7363 1103.29 81.6473 1103.29 81.524ZM1089.73 86.0959H1090.1V91.238H1089.73V86.0959ZM1104.15 86.0959H1104.52V91.238H1104.15V86.0959ZM948.148 96V95.3425H948.806V96H948.148ZM951.098 96V95.3425H951.756V96H951.098ZM954.048 96V95.3425H954.706V96H954.048ZM958.041 96.7911H955.74V96.4623H958.041V96.7911ZM966.018 96.7911H963.717V96.4623H966.018V96.7911ZM968.095 96.7911H965.794V96.4623H968.095V96.7911ZM970.172 96.7911H967.871V96.4623H970.172V96.7911ZM1089.18 92.0959H1089.56V97.238H1089.18V92.0959ZM1103.61 92.0959H1103.98V97.238H1103.61V92.0959ZM944.695 98.0651C944.732 98.1404 944.779 98.226 944.834 98.3219C944.892 98.4144 944.952 98.5051 945.013 98.5942C945.078 98.6832 945.137 98.7603 945.188 98.8253V98.887H944.885C944.827 98.839 944.762 98.7825 944.69 98.7175C944.618 98.649 944.546 98.5788 944.474 98.5068C944.405 98.4315 944.342 98.3596 944.284 98.2911C944.229 98.2226 944.186 98.1644 944.155 98.1164V98.0651H944.695ZM946.438 102V101.342H947.095V102H946.438ZM948.961 98.3322L948.858 99.6575H948.576L948.473 98.3322H948.961ZM949.901 98.3322L949.798 99.6575H949.516L949.413 98.3322H949.901ZM950.853 98.3322L950.75 99.6575H950.467L950.365 98.3322H950.853ZM951.793 98.3322L951.69 99.6575H951.407L951.305 98.3322H951.793ZM953.17 102V101.342H953.828V102H953.17ZM955.617 98.0651C955.655 98.1404 955.701 98.226 955.756 98.3219C955.814 98.4144 955.874 98.5051 955.935 98.5942C956.001 98.6832 956.059 98.7603 956.11 98.8253V98.887H955.807C955.749 98.839 955.684 98.7825 955.612 98.7175C955.54 98.649 955.468 98.5788 955.396 98.5068C955.328 98.4315 955.264 98.3596 955.206 98.2911C955.151 98.2226 955.108 98.1644 955.078 98.1164V98.0651H955.617ZM956.933 98.3322L956.831 99.6575H956.548L956.445 98.3322H956.933ZM957.882 98.3322L957.779 99.6575H957.496L957.394 98.3322H957.882ZM958.83 98.3322L958.727 99.6575H958.445L958.342 98.3322H958.83ZM959.778 98.3322L959.676 99.6575H959.393L959.29 98.3322H959.778ZM960.727 98.3322L960.624 99.6575H960.341L960.239 98.3322H960.727ZM961.667 98.3322L961.564 99.6575H961.281L961.179 98.3322H961.667ZM962.618 98.3322L962.515 99.6575H962.233L962.13 98.3322H962.618ZM963.558 98.3322L963.455 99.6575H963.173L963.07 98.3322H963.558ZM964.633 100.896V100.495H965.897V100.896H964.633ZM967.583 100.896V100.495H968.847V100.896H967.583ZM970.836 102V101.342H971.493V102H970.836ZM973.786 102V101.342H974.443V102H973.786ZM977.779 102.791H975.477V102.462H977.779V102.791ZM979.856 102.791H977.554V102.462H979.856V102.791ZM981.933 102.791H979.631V102.462H981.933V102.791ZM1089.15 98.0959H1089.52V103.238H1089.15V98.0959ZM1103.57 98.0959H1103.94V103.238H1103.57V98.0959ZM945.198 107.974V107.358H945.856V108.087C945.856 108.55 945.532 108.791 945.013 108.791V108.483C945.296 108.483 945.506 108.416 945.506 108.092V107.974H945.198ZM947.845 106.896V106.495H949.109V106.896H947.845ZM950.343 104.332L951.715 108H951.268L949.901 104.332H950.343ZM957.949 104.332L959.32 108H958.873L957.507 104.332H957.949ZM998.333 104.332L998.23 105.658H997.948L997.845 104.332H998.333ZM999.273 104.332L999.17 105.658H998.888L998.785 104.332H999.273ZM1000.22 104.332L1000.12 105.658H999.839L999.736 104.332H1000.22ZM1001.16 104.332L1001.06 105.658H1000.78L1000.68 104.332H1001.16ZM1002.24 106.896V106.495H1003.5V106.896H1002.24ZM1005.49 108V107.342H1006.15V108H1005.49ZM1008.44 108V107.342H1009.1V108H1008.44ZM1011.39 108V107.342H1012.05V108H1011.39ZM1015.38 108.791H1013.08V108.462H1015.38V108.791ZM1017.46 108.791H1015.16V108.462H1017.46V108.791ZM1046.09 108.791H1043.79V108.462H1046.09V108.791ZM1048.17 108.791H1045.86V108.462H1048.17V108.791ZM1050.24 108.791H1047.94V108.462H1050.24V108.791ZM1052.32 108.791H1050.02V108.462H1052.32V108.791ZM1054.4 108.791H1052.1V108.462H1054.4V108.791ZM1056.47 108.791H1054.17V108.462H1056.47V108.791ZM1058.55 108.791H1056.25V108.462H1058.55V108.791ZM1060.63 108.791H1058.33V108.462H1060.63V108.791ZM1062.71 108.791H1060.4V108.462H1062.71V108.791ZM1064.78 108.791H1062.48V108.462H1064.78V108.791ZM1066.86 108.791H1064.56V108.462H1066.86V108.791ZM1068.94 108.791H1066.64V108.462H1068.94V108.791ZM1071.01 108.791H1068.71V108.462H1071.01V108.791ZM1090.36 104.332L1088.99 108H1088.55L1089.92 104.332H1090.36ZM1103.23 104.096H1103.61V109.238H1103.23V104.096ZM945.81 110.332L944.443 114H944.001L945.368 110.332H945.81ZM949.351 110.065C949.388 110.14 949.435 110.226 949.489 110.322C949.548 110.414 949.607 110.505 949.669 110.594C949.734 110.683 949.792 110.76 949.844 110.825V110.887H949.541C949.482 110.839 949.417 110.783 949.345 110.717C949.274 110.649 949.202 110.579 949.13 110.507C949.061 110.431 948.998 110.36 948.94 110.291C948.885 110.223 948.842 110.164 948.811 110.116V110.065H949.351ZM953.617 110.332L953.514 111.658H953.232L953.129 110.332H953.617ZM954.557 110.332L954.454 111.658H954.172L954.069 110.332H954.557ZM958.458 110.332L958.356 111.658H958.073L957.97 110.332H958.458ZM1018.33 110.065C1018.37 110.14 1018.41 110.226 1018.47 110.322C1018.53 110.414 1018.59 110.505 1018.65 110.594C1018.71 110.683 1018.77 110.76 1018.82 110.825V110.887H1018.52C1018.46 110.839 1018.4 110.783 1018.32 110.717C1018.25 110.649 1018.18 110.579 1018.11 110.507C1018.04 110.431 1017.98 110.36 1017.92 110.291C1017.86 110.223 1017.82 110.164 1017.79 110.116V110.065H1018.33ZM1019.65 110.332L1019.54 111.658H1019.26L1019.16 110.332H1019.65ZM1020.59 110.332L1020.48 111.658H1020.2L1020.1 110.332H1020.59ZM1021.54 110.332L1021.43 111.658H1021.15L1021.05 110.332H1021.54ZM1022.48 110.332L1022.37 111.658H1022.09L1021.99 110.332H1022.48ZM1023.43 110.332L1023.33 111.658H1023.04L1022.94 110.332H1023.43ZM1024.37 110.332L1024.27 111.658H1023.98L1023.88 110.332H1024.37ZM1025.32 110.332L1025.22 111.658H1024.93L1024.83 110.332H1025.32ZM1026.26 110.332L1026.16 111.658H1025.87L1025.77 110.332H1026.26ZM1027.21 110.332L1027.11 111.658H1026.83L1026.72 110.332H1027.21ZM1028.15 110.332L1028.05 111.658H1027.77L1027.66 110.332H1028.15ZM1029.1 110.332L1029 111.658H1028.72L1028.61 110.332H1029.1ZM1030.04 110.332L1029.94 111.658H1029.66L1029.55 110.332H1030.04ZM1030.99 110.332L1030.89 111.658H1030.61L1030.51 110.332H1030.99ZM1031.93 110.332L1031.83 111.658H1031.55L1031.45 110.332H1031.93ZM1032.89 110.332L1032.78 111.658H1032.5L1032.4 110.332H1032.89ZM1033.83 110.332L1033.72 111.658H1033.44L1033.34 110.332H1033.83ZM1088.3 114V113.342H1088.96V114H1088.3ZM944.443 116.332L945.815 120H945.368L944.001 116.332H944.443ZM1105.57 116.764H1106.02V119.61H1107.69V120H1105.57V116.764ZM944.155 124.592C944.155 124.312 944.181 124.038 944.232 123.771C944.287 123.503 944.371 123.248 944.484 123.005C944.597 122.762 944.739 122.538 944.911 122.332H945.337C945.179 122.545 945.046 122.774 944.936 123.021C944.83 123.267 944.75 123.522 944.695 123.786C944.64 124.05 944.613 124.317 944.613 124.587C944.613 124.851 944.64 125.113 944.695 125.373C944.75 125.634 944.83 125.884 944.936 126.123C945.042 126.366 945.174 126.596 945.332 126.812H944.911C944.739 126.61 944.597 126.389 944.484 126.149C944.371 125.913 944.287 125.663 944.232 125.399C944.181 125.135 944.155 124.866 944.155 124.592ZM945.541 125.003L947.478 124.197L945.541 123.277V122.877L947.961 124.084V124.341L945.541 125.404V125.003ZM1107.81 122.332L1109.18 126H1108.73L1107.37 122.332H1107.81ZM942.86 128.332L941.493 132H941.051L942.418 128.332H942.86ZM1111.35 128.332L1112.72 132H1112.27L1110.91 128.332H1111.35ZM941.493 134.332L942.865 138H942.418L941.051 134.332H941.493ZM944.997 138.791H942.696V138.462H944.997V138.791ZM958.874 138.791H956.572V138.462H958.874V138.791ZM960.951 138.791H958.65V138.462H960.951V138.791ZM963.028 138.791H960.727V138.462H963.028V138.791ZM964.062 138V137.342H964.72V138H964.062ZM967.012 138V137.342H967.67V138H967.012ZM969.659 136.896V136.495H970.923V136.896H969.659ZM972.609 136.896V136.495H973.873V136.896H972.609ZM975.559 136.896V136.495H976.823V136.896H975.559ZM978.812 138V137.342H979.47V138H978.812ZM1110.93 134.764H1111.38V137.61H1113.05V138H1110.93V134.764ZM947.645 140.065C947.682 140.14 947.729 140.226 947.783 140.322C947.842 140.414 947.902 140.505 947.963 140.594C948.028 140.683 948.087 140.76 948.138 140.825V140.887H947.835C947.777 140.839 947.712 140.783 947.64 140.717C947.568 140.649 947.496 140.579 947.424 140.507C947.355 140.431 947.292 140.36 947.234 140.291C947.179 140.223 947.136 140.164 947.105 140.116V140.065H947.645ZM949.084 142.896V142.495H950.348V142.896H949.084ZM952.034 142.896V142.495H953.298V142.896H952.034ZM954.861 140.332L954.758 141.658H954.476L954.373 140.332H954.861ZM982.359 140.332L982.256 141.658H981.974L981.871 140.332H982.359ZM983.734 144V143.342H984.391V144H983.734ZM1112.78 140.332L1114.15 144H1113.7L1112.34 140.332H1112.78ZM992.398 150V149.342H993.055V150H992.398ZM1121.44 146.332L1122.81 150H1122.37L1121 146.332H1121.44ZM1124.94 150.791H1122.64V150.462H1124.94V150.791ZM990.49 156.791H988.189V156.462H990.49V156.791ZM992.136 152.332L990.77 156H990.328L991.694 152.332H992.136ZM992.727 152.065C992.765 152.14 992.811 152.226 992.866 152.322C992.924 152.414 992.984 152.505 993.046 152.594C993.111 152.683 993.169 152.76 993.22 152.825V152.887H992.917C992.859 152.839 992.794 152.783 992.722 152.717C992.65 152.649 992.578 152.579 992.506 152.507C992.438 152.431 992.374 152.36 992.316 152.291C992.261 152.223 992.219 152.164 992.188 152.116V152.065H992.727ZM994.47 156V155.342H995.127V156H994.47ZM1123.76 152.065C1123.8 152.14 1123.85 152.226 1123.9 152.322C1123.96 152.414 1124.02 152.505 1124.08 152.594C1124.15 152.683 1124.21 152.76 1124.26 152.825V152.887H1123.95C1123.9 152.839 1123.83 152.783 1123.76 152.717C1123.69 152.649 1123.62 152.579 1123.54 152.507C1123.48 152.431 1123.41 152.36 1123.35 152.291C1123.3 152.223 1123.26 152.164 1123.23 152.116V152.065H1123.76ZM1125.51 156V155.342H1126.17V156H1125.51ZM1128.46 156V155.342H1129.12V156H1128.46ZM1132.45 156.791H1130.15V156.462H1132.45V156.791ZM980.598 162V161.342H981.255V162H980.598ZM983.121 158.332L983.019 159.658H982.736L982.633 158.332H983.121ZM998.943 160.896V160.495H1000.21V160.896H998.943ZM1002.2 162V161.342H1002.85V162H1002.2ZM1137.39 158.065C1137.43 158.14 1137.47 158.226 1137.53 158.322C1137.59 158.414 1137.65 158.505 1137.71 158.594C1137.77 158.683 1137.83 158.76 1137.88 158.825V158.887H1137.58C1137.52 158.839 1137.46 158.783 1137.39 158.717C1137.31 158.649 1137.24 158.579 1137.17 158.507C1137.1 158.431 1137.04 158.36 1136.98 158.291C1136.92 158.223 1136.88 158.164 1136.85 158.116V158.065H1137.39ZM1139.13 162V161.342H1139.79V162H1139.13ZM978.259 164.332L976.893 168H976.451L977.817 164.332H978.259ZM995.146 168.791H992.845V168.462H995.146V168.791ZM997.223 168.791H994.922V168.462H997.223V168.791ZM998.258 168V167.342H998.915V168H998.258ZM1000.9 166.896V166.495H1002.17V166.896H1000.9ZM1004.51 166.228L1005.42 164.764H1005.89L1004.7 166.649V168H1004.27V166.649L1003.08 164.764H1003.59L1004.51 166.228ZM1022.47 164.332L1021.1 168H1020.66L1022.03 164.332H1022.47ZM1023.14 164.332L1023.03 165.658H1022.75L1022.65 164.332H1023.14ZM1024.09 164.332L1023.98 165.658H1023.7L1023.6 164.332H1024.09ZM1025.03 164.332L1024.93 165.658H1024.65L1024.55 164.332H1025.03ZM1025.98 164.332L1025.88 165.658H1025.6L1025.49 164.332H1025.98ZM1026.93 164.332L1026.83 165.658H1026.54L1026.44 164.332H1026.93ZM1027.88 164.332L1027.78 165.658H1027.49L1027.39 164.332H1027.88ZM1028.95 166.896V166.495H1030.21V166.896H1028.95ZM1032.2 168V167.342H1032.86V168H1032.2ZM1035.15 168V167.342H1035.81V168H1035.15ZM1038.1 168V167.342H1038.76V168H1038.1ZM1042.1 168.791H1039.79V168.462H1042.1V168.791ZM1044.17 168.791H1041.87V168.462H1044.17V168.791ZM1046.25 168.791H1043.95V168.462H1046.25V168.791ZM1047.28 167.974V167.358H1047.94V168.087C1047.94 168.55 1047.62 168.791 1047.1 168.791V168.483C1047.38 168.483 1047.59 168.416 1047.59 168.092V167.974H1047.28ZM1050.23 168V167.342H1050.89V168H1050.23ZM1053.18 168V167.342H1053.84V168H1053.18ZM1056.13 168V167.342H1056.79V168H1056.13ZM1058.78 166.896V166.495H1060.04V166.896H1058.78ZM1061.73 166.896V166.495H1062.99V166.896H1061.73ZM1064.68 166.896V166.495H1065.94V166.896H1064.68ZM1067.63 166.896V166.495H1068.89V166.896H1067.63ZM1070.58 166.896V166.495H1071.84V166.896H1070.58ZM1073.53 166.896V166.495H1074.79V166.896H1073.53ZM1076.48 166.896V166.495H1077.74V166.896H1076.48ZM1079.43 166.896V166.495H1080.69V166.896H1079.43ZM1082.68 168V167.342H1083.34V168H1082.68ZM1085.63 168V167.342H1086.29V168H1085.63ZM1089.63 168.791H1087.33V168.462H1089.63V168.791ZM1126.04 164.096H1126.41V169.238H1126.04V164.096ZM975.309 170.332L973.943 174H973.501L974.867 170.332H975.309ZM986.296 174.791H983.995V174.462H986.296V174.791ZM987.331 174V173.342H987.988V174H987.331ZM989.854 170.332L989.752 171.658H989.469L989.366 170.332H989.854ZM990.794 170.332L990.692 171.658H990.409L990.306 170.332H990.794ZM1003.95 170.096H1004.33V175.238H1003.95V170.096ZM1019.01 170.332L1017.64 174H1017.2L1018.57 170.332H1019.01ZM1066.87 170.332L1066.77 171.658H1066.49L1066.39 170.332H1066.87ZM1071.2 174V173.342H1071.86V174H1071.2ZM1091.09 170.332L1092.47 174H1092.02L1090.65 170.332H1091.09ZM1101.98 170.332L1101.88 171.658H1101.59L1101.49 170.332H1101.98ZM1103.05 172.896V172.495H1104.31V172.896H1103.05ZM1106 172.896V172.495H1107.26V172.896H1106ZM1108.95 172.896V172.495H1110.21V172.896H1108.95ZM1112.2 174V173.342H1112.86V174H1112.2ZM1115.15 174V173.342H1115.81V174H1115.15ZM1118.1 174V173.342H1118.76V174H1118.1ZM1122.1 174.791H1119.79V174.462H1122.1V174.791ZM1134.91 170.096H1135.28V175.238H1134.91V170.096ZM972.359 176.332L970.993 180H970.551L971.917 176.332H972.359ZM982.915 176.332L981.548 180H981.107L982.473 176.332H982.915ZM1002.32 176.332L1000.95 180H1000.51L1001.88 176.332H1002.32ZM1015.83 176.332L1014.46 180H1014.02L1015.38 176.332H1015.83ZM1065.16 180.791H1062.86V180.462H1065.16V180.791ZM1066.2 179.974V179.358H1066.85V180.087C1066.85 180.55 1066.53 180.791 1066.01 180.791V180.483C1066.29 180.483 1066.51 180.416 1066.51 180.092V179.974H1066.2ZM1069.15 180V179.342H1069.8V180H1069.15ZM1074.62 176.332L1074.52 177.658H1074.24L1074.13 176.332H1074.62ZM1087.8 179.974V179.358H1088.45V180.087C1088.45 180.55 1088.13 180.791 1087.61 180.791V180.483C1087.89 180.483 1088.1 180.416 1088.1 180.092V179.974H1087.8ZM1091.36 176.332L1089.99 180H1089.55L1090.91 176.332H1091.36ZM1124.88 176.096H1125.26V181.238H1124.88V176.096ZM1136.35 176.096H1136.73V181.238H1136.35V176.096ZM970.993 182.332L972.364 186H971.917L970.551 182.332H970.993ZM974.497 186.791H972.195V186.462H974.497V186.791ZM975.531 185.974V185.358H976.188V186.087C976.188 186.55 975.865 186.791 975.346 186.791V186.483C975.628 186.483 975.839 186.416 975.839 186.092V185.974H975.531ZM978.054 182.332L977.952 183.658H977.669L977.566 182.332H978.054ZM995.222 186.791H992.92V186.462H995.222V186.791ZM996.256 186V185.342H996.914V186H996.256ZM998.78 182.332L998.677 183.658H998.394L998.292 182.332H998.78ZM1009.62 182.332L1008.25 186H1007.81L1009.17 182.332H1009.62ZM1052.62 182.332L1051.25 186H1050.81L1052.18 182.332H1052.62ZM1053.29 182.332L1053.19 183.658H1052.9L1052.8 182.332H1053.29ZM1054.24 182.332L1054.13 183.658H1053.85L1053.75 182.332H1054.24ZM1071.4 186.791H1069.1V186.462H1071.4V186.791ZM1072.44 185.974V185.358H1073.1V186.087C1073.1 186.55 1072.77 186.791 1072.25 186.791V186.483C1072.54 186.483 1072.75 186.416 1072.75 186.092V185.974H1072.44ZM1075.09 184.896V184.495H1076.35V184.896H1075.09ZM1077.91 182.332L1077.81 183.658H1077.53L1077.42 182.332H1077.91ZM1115.73 186.791H1113.43V186.462H1115.73V186.791ZM1116.74 182.096H1117.12V187.238H1116.74V182.096ZM1128.22 182.096H1128.59V187.238H1128.22V182.096ZM994.921 188.332L994.818 189.658H994.536L994.433 188.332H994.921ZM1011.66 188.332L1010.29 192H1009.85L1011.22 188.332H1011.66ZM1056.5 188.065C1056.54 188.14 1056.58 188.226 1056.64 188.322C1056.69 188.414 1056.75 188.505 1056.82 188.594C1056.88 188.683 1056.94 188.76 1056.99 188.825V188.887H1056.69C1056.63 188.839 1056.56 188.783 1056.49 188.717C1056.42 188.649 1056.35 188.579 1056.28 188.507C1056.21 188.431 1056.14 188.36 1056.09 188.291C1056.03 188.223 1055.99 188.164 1055.96 188.116V188.065H1056.5ZM1057.94 190.896V190.495H1059.2V190.896H1057.94ZM1060.89 190.896V190.495H1062.15V190.896H1060.89ZM1063.84 190.896V190.495H1065.1V190.896H1063.84ZM1066.79 190.896V190.495H1068.05V190.896H1066.79ZM1069.74 190.896V190.495H1071V190.896H1069.74ZM1072.56 188.332L1072.46 189.658H1072.18L1072.08 188.332H1072.56ZM1073.51 188.332L1073.41 189.658H1073.13L1073.02 188.332H1073.51ZM1119.75 188.332L1118.38 192H1117.94L1119.31 188.332H1119.75ZM1135.57 188.096H1135.95V193.238H1135.57V188.096ZM994.844 194.065C994.882 194.14 994.928 194.226 994.983 194.322C995.041 194.414 995.101 194.505 995.163 194.594C995.228 194.683 995.286 194.76 995.337 194.825V194.887H995.034C994.976 194.839 994.911 194.783 994.839 194.717C994.767 194.649 994.695 194.579 994.623 194.507C994.555 194.431 994.491 194.36 994.433 194.291C994.378 194.223 994.336 194.164 994.305 194.116V194.065H994.844ZM996.587 198V197.342H997.244V198H996.587ZM999.537 198V197.342H1000.19V198H999.537ZM1002.49 198V197.342H1003.14V198H1002.49ZM1005.13 196.896V196.495H1006.4V196.896H1005.13ZM1007.96 194.332L1007.86 195.658H1007.58L1007.47 194.332H1007.96ZM1118.07 196.967H1117.78L1117.65 194.332H1118.2L1118.07 196.967ZM1117.61 197.723C1117.61 197.596 1117.64 197.507 1117.7 197.455C1117.76 197.404 1117.83 197.378 1117.92 197.378C1118.01 197.378 1118.08 197.404 1118.14 197.455C1118.21 197.507 1118.24 197.596 1118.24 197.723C1118.24 197.846 1118.21 197.935 1118.14 197.99C1118.08 198.045 1118.01 198.072 1117.92 198.072C1117.83 198.072 1117.76 198.045 1117.7 197.99C1117.64 197.935 1117.61 197.846 1117.61 197.723ZM1120.7 198.791H1118.4V198.462H1120.7V198.791ZM1122.78 198.791H1120.48V198.462H1122.78V198.791ZM1124.85 198.791H1122.55V198.462H1124.85V198.791ZM1126.93 198.791H1124.63V198.462H1126.93V198.791ZM1129.01 198.791H1126.71V198.462H1129.01V198.791ZM1130.13 196.592C1130.13 196.866 1130.1 197.135 1130.05 197.399C1130 197.663 1129.91 197.913 1129.8 198.149C1129.69 198.389 1129.55 198.61 1129.38 198.812H1128.95C1129.11 198.596 1129.24 198.366 1129.35 198.123C1129.46 197.884 1129.54 197.634 1129.59 197.373C1129.65 197.113 1129.67 196.851 1129.67 196.587C1129.67 196.317 1129.65 196.05 1129.59 195.786C1129.54 195.522 1129.46 195.267 1129.35 195.021C1129.24 194.774 1129.11 194.545 1128.95 194.332H1129.38C1129.55 194.538 1129.69 194.762 1129.8 195.005C1129.91 195.248 1130 195.503 1130.05 195.771C1130.1 196.038 1130.13 196.312 1130.13 196.592Z" fill="#C2C2C2"/>
</svg>
