<svg width="168" height="111" viewBox="0 0 168 111" fill="none" xmlns="http://www.w3.org/2000/svg">
<path d="M1.27665 43.4565H2.73529V63.4578H1.27665V43.4565Z" fill="#7E7E7E"/>
<path d="M1.27665 66.9432H2.73529V86.9445H1.27665V66.9432Z" fill="#7E7E7E"/>
<path d="M1.27665 90.4299H2.73529V110.431H1.27665V90.4299Z" fill="#7E7E7E"/>
<path d="M26.5696 43.4565H28.0283V63.4578H26.5696V43.4565Z" fill="#7E7E7E"/>
<path d="M43.4804 44.3756L38.1654 58.6423H36.447L41.7621 44.3756H43.4804Z" fill="#7E7E7E"/>
<path d="M119.361 44.3756L114.046 58.6423H112.328L117.643 44.3756H119.361Z" fill="#7E7E7E"/>
<path d="M151.986 42.569L157.321 56.8356H155.582L150.267 42.569H151.986Z" fill="#7E7E7E"/>
<path d="M26.5696 66.9432H28.0283V86.9445H26.5696V66.9432Z" fill="#7E7E7E"/>
<path d="M26.5696 90.4299H28.0283V110.431H26.5696V90.4299Z" fill="#7E7E7E"/>
<path d="M102.45 66.9432H103.909V86.9445H102.45V66.9432Z" fill="#7E7E7E"/>
<path d="M140.39 18.1631H141.849V38.1644H140.39V18.1631Z" fill="#7E7E7E"/>
<path d="M133.266 38.1107H121.101V36.3728H133.266V38.1107Z" fill="#7E7E7E"/>
<path d="M118.452 38.1107H106.287V36.3728H118.452V38.1107Z" fill="#7E7E7E"/>
<path d="M103.639 38.1107H91.4742V36.3728H103.639V38.1107Z" fill="#7E7E7E"/>
<path d="M90.9928 85.084H78.8277V83.3462H90.9928V85.084Z" fill="#7E7E7E"/>
<path d="M122.255 86.4888H110.649V84.8307H122.255V86.4888Z" fill="#7E7E7E"/>
<path d="M160.956 86.4888H149.35V84.8307H160.956V86.4888Z" fill="#7E7E7E"/>
<path d="M147.392 67.8073C147.236 68.4637 147.072 69.1718 146.899 69.9318C146.727 70.6917 146.571 71.4344 146.433 72.1599C146.295 72.8853 146.183 73.5503 146.096 74.1548H143.635L143.454 73.8698C143.609 73.2653 143.808 72.6176 144.049 71.9267C144.291 71.2185 144.559 70.5104 144.853 69.8022C145.146 69.0941 145.431 68.4291 145.708 67.8073H147.392ZM142.599 67.8073C142.443 68.4637 142.279 69.1718 142.106 69.9318C141.934 70.6917 141.778 71.4344 141.64 72.1599C141.502 72.8853 141.39 73.5503 141.303 74.1548H138.868L138.712 73.8698C138.868 73.2653 139.066 72.6176 139.308 71.9267C139.55 71.2185 139.809 70.5104 140.086 69.8022C140.379 69.0941 140.664 68.4291 140.94 67.8073H142.599Z" fill="#7E7E7E"/>
<path d="M133.392 67.8073C133.236 68.4637 133.072 69.1718 132.899 69.9318C132.727 70.6917 132.571 71.4344 132.433 72.1599C132.295 72.8853 132.183 73.5503 132.096 74.1548H129.635L129.454 73.8698C129.609 73.2653 129.808 72.6176 130.049 71.9267C130.291 71.2185 130.559 70.5104 130.853 69.8022C131.146 69.0941 131.431 68.4291 131.708 67.8073H133.392ZM128.599 67.8073C128.443 68.4637 128.279 69.1718 128.106 69.9318C127.934 70.6917 127.778 71.4344 127.64 72.1599C127.502 72.8853 127.39 73.5503 127.303 74.1548H124.868L124.712 73.8698C124.868 73.2653 125.066 72.6176 125.308 71.9267C125.55 71.2185 125.809 70.5104 126.086 69.8022C126.379 69.0941 126.664 68.4291 126.94 67.8073H128.599Z" fill="#7E7E7E"/>
<path d="M163.954 110.487H151.789V108.749H163.954V110.487Z" fill="#7E7E7E"/>
<path d="M76.1783 85.084H64.0132V83.3462H76.1783V85.084Z" fill="#7E7E7E"/>
<path d="M88.8248 38.1107H76.6597V36.3728H88.8248V38.1107Z" fill="#7E7E7E"/>
<path d="M61.3658 85.084H49.2007V83.3462H61.3658V85.084Z" fill="#7E7E7E"/>
<path d="M149.139 110.487H136.974V108.749H149.139V110.487Z" fill="#7E7E7E"/>
<path d="M46.5514 85.084H34.3863V83.3462H46.5514V85.084Z" fill="#7E7E7E"/>
<path d="M74.0123 38.1107H61.8472V36.3728H74.0123V38.1107Z" fill="#7E7E7E"/>
<path d="M134.327 110.487H122.162V108.749H134.327V110.487Z" fill="#7E7E7E"/>
<path d="M59.1998 38.1107H47.0347V36.3728H59.1998V38.1107Z" fill="#7E7E7E"/>
<path d="M20.5123 28.4874H8.3472V26.7495H20.5123V28.4874Z" fill="#7E7E7E"/>
<path d="M20.5123 51.4874H8.3472V49.7495H20.5123V51.4874Z" fill="#7E7E7E"/>
<path d="M20.5123 56.4874H8.3472V54.7495H20.5123V56.4874Z" fill="#7E7E7E"/>
<path d="M0 34.3056V30.8299H3.47575V34.3056H0Z" fill="#7E7E7E"/>
<path d="M25 34.3056V30.8299H28.4757V34.3056H25Z" fill="#7E7E7E"/>
<path d="M119.512 110.487H107.347V108.749H119.512V110.487Z" fill="#7E7E7E"/>
<path d="M45.5514 110.377H33.3863V108.64H45.5514V110.377Z" fill="#7E7E7E"/>
<path d="M54.822 108.643H50.0911V90.2259H54.822V91.7466H51.9074V107.122H54.822V108.643Z" fill="#7E7E7E"/>
<path d="M75.9295 107.122H78.8441V91.7466H75.9295V90.2259H80.6604V108.643H75.9295V107.122Z" fill="#7E7E7E"/>
<path d="M61.1893 105.306H59.2463L63.8505 98.3994L59.6687 92H61.7807L64.9276 96.8787L68.1167 92H70.0809L65.8991 98.2726L70.5033 105.306H68.3701L64.822 99.7933L61.1893 105.306Z" fill="#7E7E7E"/>
<path d="M136.906 13.559C134.182 13.559 131.901 11.8483 131.901 7.96224V0H133.738V7.83552C133.738 10.56 134.816 11.9539 136.906 11.9539C138.955 11.9539 140.074 10.56 140.074 7.83552V0H141.891V7.96224C141.891 11.8483 139.589 13.559 136.906 13.559Z" fill="#7E7E7E"/>
<path d="M144.473 13.3056H142.53L147.134 6.39936L142.952 0H145.064L148.211 4.87872L151.4 0H153.364L149.183 6.27264L153.787 13.3056H151.654L148.106 7.79328L144.473 13.3056Z" fill="#7E7E7E"/>
<path d="M96.5123 110.377H84.3472V108.64H96.5123V110.377Z" fill="#7E7E7E"/>
<path d="M20.2584 110.377H8.09329V108.64H20.2584V110.377Z" fill="#7E7E7E"/>
<path d="M165.683 66.9432H167.142V86.9445H165.683V66.9432Z" fill="#7E7E7E"/>
<path d="M102.45 90.4299H103.909V110.431H102.45V90.4299Z" fill="#7E7E7E"/>
<path d="M165.683 90.4299H167.142V110.431H165.683V90.4299Z" fill="#7E7E7E"/>
</svg>
