<svg width="1728" height="379" viewBox="0 0 1728 379" fill="none" xmlns="http://www.w3.org/2000/svg">
<g clip-path="url(#clip0_2228_718)">
<rect y="-67" width="1728" height="310" fill="url(#paint0_linear_2228_718)"/>
<path d="M477.06 62.9712C477.671 61.0917 480.329 61.0917 480.94 62.9712L486.175 79.0838C486.449 79.9243 487.232 80.4934 488.116 80.4934L505.057 80.4934C507.034 80.4934 507.855 83.0222 506.257 84.1838L492.55 94.142C491.835 94.6614 491.536 95.5822 491.809 96.4228L497.045 112.535C497.655 114.415 495.504 115.978 493.905 114.816L480.199 104.858C479.484 104.339 478.516 104.339 477.801 104.858L464.095 114.816C462.496 115.978 460.345 114.415 460.955 112.535L466.191 96.4228C466.464 95.5822 466.165 94.6614 465.45 94.142L451.743 84.1838C450.145 83.0222 450.966 80.4934 452.943 80.4934L469.884 80.4934C470.768 80.4934 471.551 79.9243 471.825 79.0838L477.06 62.9712Z" fill="url(#paint1_linear_2228_718)"/>
<path d="M121.516 57.5662C121.983 56.129 124.017 56.129 124.484 57.5662L128.487 69.8876C128.696 70.5304 129.295 70.9656 129.971 70.9656H142.926C144.437 70.9656 145.066 72.8994 143.843 73.7876L133.362 81.4027C132.815 81.7999 132.586 82.5041 132.795 83.1468L136.799 95.4682C137.266 96.9055 135.621 98.1006 134.398 97.2124L123.917 89.5973C123.37 89.2001 122.63 89.2001 122.083 89.5973L111.602 97.2124C110.379 98.1006 108.734 96.9055 109.201 95.4682L113.205 83.1468C113.414 82.5041 113.185 81.7999 112.638 81.4027L102.157 73.7876C100.934 72.8994 101.563 70.9656 103.074 70.9656H116.029C116.705 70.9656 117.304 70.5304 117.513 69.8876L121.516 57.5662Z" fill="url(#paint2_linear_2228_718)"/>
<path d="M-28.8532 93.7812C-27.9551 91.0172 -24.0449 91.0172 -23.1468 93.7812L-2.20151 158.244C-1.79989 159.48 -0.648021 160.317 0.651658 160.317H68.4321C71.3383 160.317 72.5466 164.036 70.1955 165.744L15.3599 205.585C14.3085 206.348 13.8685 207.703 14.2701 208.939L35.2154 273.402C36.1135 276.166 32.95 278.464 30.5989 276.756L-24.2366 236.915C-25.2881 236.152 -26.7119 236.152 -27.7634 236.915L-82.5989 276.756C-84.95 278.464 -88.1135 276.166 -87.2154 273.402L-66.2701 208.939C-65.8685 207.703 -66.3085 206.348 -67.3599 205.585L-122.195 165.744C-124.547 164.036 -123.338 160.317 -120.432 160.317H-52.6516C-51.352 160.317 -50.2001 159.48 -49.7985 158.244L-28.8532 93.7812Z" fill="url(#paint3_linear_2228_718)"/>
<path d="M889.025 159.079C889.646 157.166 892.354 157.166 892.975 159.079L896.596 170.221C896.874 171.077 897.671 171.657 898.571 171.657H910.286C912.298 171.657 913.135 174.231 911.507 175.414L902.029 182.3C901.301 182.829 900.997 183.766 901.275 184.622L904.895 195.764C905.517 197.678 903.327 199.269 901.699 198.086L892.221 191.2C891.493 190.671 890.507 190.671 889.779 191.2L880.301 198.086C878.673 199.269 876.483 197.678 877.105 195.764L880.725 184.622C881.003 183.766 880.699 182.829 879.971 182.3L870.493 175.414C868.865 174.231 869.702 171.657 871.714 171.657H883.429C884.329 171.657 885.126 171.077 885.404 170.221L889.025 159.079Z" fill="url(#paint4_linear_2228_718)"/>
<path d="M1573.11 114.368C1573.86 112.049 1577.14 112.049 1577.89 114.368L1583.13 130.482C1583.47 131.519 1584.43 132.221 1585.52 132.221H1602.47C1604.9 132.221 1605.92 135.341 1603.95 136.775L1590.24 146.733C1589.36 147.374 1588.99 148.51 1589.32 149.548L1594.56 165.661C1595.31 167.98 1592.66 169.909 1590.69 168.475L1576.98 158.517C1576.1 157.876 1574.9 157.876 1574.02 158.517L1560.31 168.475C1558.34 169.909 1555.69 167.98 1556.44 165.661L1561.68 149.548C1562.01 148.51 1561.64 147.374 1560.76 146.733L1547.05 136.775C1545.08 135.341 1546.1 132.221 1548.53 132.221H1565.48C1566.57 132.221 1567.53 131.519 1567.87 130.482L1573.11 114.368Z" fill="url(#paint5_linear_2228_718)"/>
<path d="M1093.12 26.7937C1093.71 24.9701 1096.29 24.9701 1096.88 26.7937L1101.74 41.7437C1102.01 42.5593 1102.77 43.1115 1103.62 43.1115H1119.34C1121.26 43.1115 1122.06 45.5651 1120.51 46.6922L1107.79 55.9318C1107.09 56.4358 1106.8 57.3293 1107.07 58.1448L1111.93 73.0948C1112.52 74.9184 1110.43 76.4349 1108.88 75.3078L1096.16 66.0682C1095.47 65.5642 1094.53 65.5642 1093.84 66.0682L1081.12 75.3078C1079.57 76.4349 1077.48 74.9184 1078.07 73.0948L1082.93 58.1448C1083.2 57.3293 1082.91 56.4358 1082.21 55.9318L1069.49 46.6922C1067.94 45.5651 1068.74 43.1115 1070.66 43.1115H1086.38C1087.23 43.1115 1087.99 42.5593 1088.26 41.7437L1093.12 26.7937Z" fill="url(#paint6_linear_2228_718)"/>
<path d="M1726.12 26.7937C1726.71 24.9701 1729.29 24.9701 1729.88 26.7937L1734.74 41.7437C1735.01 42.5593 1735.77 43.1115 1736.62 43.1115H1752.34C1754.26 43.1115 1755.06 45.5651 1753.51 46.6922L1740.79 55.9318C1740.09 56.4358 1739.8 57.3293 1740.07 58.1448L1744.93 73.0948C1745.52 74.9184 1743.43 76.4349 1741.88 75.3078L1729.16 66.0682C1728.47 65.5642 1727.53 65.5642 1726.84 66.0682L1714.12 75.3078C1712.57 76.4349 1710.48 74.9184 1711.07 73.0948L1715.93 58.1448C1716.2 57.3293 1715.91 56.4358 1715.21 55.9318L1702.49 46.6922C1700.94 45.5651 1701.74 43.1115 1703.66 43.1115H1719.38C1720.23 43.1115 1720.99 42.5593 1721.26 41.7437L1726.12 26.7937Z" fill="url(#paint7_linear_2228_718)"/>
</g>
<defs>
<linearGradient id="paint0_linear_2228_718" x1="713.634" y1="-77.3662" x2="713.634" y2="243" gradientUnits="userSpaceOnUse">
<stop stop-color="#8DECF6"/>
<stop offset="0.785231" stop-color="#8DECF6" stop-opacity="0"/>
</linearGradient>
<linearGradient id="paint1_linear_2228_718" x1="477.224" y1="67.1493" x2="450.328" y2="128.045" gradientUnits="userSpaceOnUse">
<stop stop-color="#AEFFE7"/>
<stop offset="1" stop-color="#79DFFF"/>
</linearGradient>
<linearGradient id="paint2_linear_2228_718" x1="121.642" y1="60.7612" x2="101.075" y2="107.328" gradientUnits="userSpaceOnUse">
<stop stop-color="#AEFFE7"/>
<stop offset="1" stop-color="#79DFFF"/>
</linearGradient>
<linearGradient id="paint3_linear_2228_718" x1="-31.694" y1="117.537" x2="-117.918" y2="312.761" gradientUnits="userSpaceOnUse">
<stop stop-color="#AEFFE7"/>
<stop offset="1" stop-color="#79DFFF"/>
</linearGradient>
<linearGradient id="paint4_linear_2228_718" x1="889.59" y1="161.06" x2="868.231" y2="209.418" gradientUnits="userSpaceOnUse">
<stop stop-color="#AEFFE7"/>
<stop offset="1" stop-color="#79DFFF"/>
</linearGradient>
<linearGradient id="paint5_linear_2228_718" x1="1573.59" y1="117.896" x2="1544.72" y2="183.269" gradientUnits="userSpaceOnUse">
<stop stop-color="#AEFFE7"/>
<stop offset="1" stop-color="#79DFFF"/>
</linearGradient>
<linearGradient id="paint6_linear_2228_718" x1="1093.33" y1="30.5522" x2="1068.01" y2="87.8657" gradientUnits="userSpaceOnUse">
<stop stop-color="#AEFFE7"/>
<stop offset="1" stop-color="#79DFFF"/>
</linearGradient>
<linearGradient id="paint7_linear_2228_718" x1="1726.33" y1="30.5522" x2="1701.01" y2="87.8657" gradientUnits="userSpaceOnUse">
<stop stop-color="#AEFFE7"/>
<stop offset="1" stop-color="#79DFFF"/>
</linearGradient>
<clipPath id="clip0_2228_718">
<rect width="1728" height="379" fill="white"/>
</clipPath>
</defs>
</svg>
