<svg width="97" height="15" viewBox="0 0 97 15" fill="none" xmlns="http://www.w3.org/2000/svg">
<path d="M7.84123 7.2403C7.84123 9.5956 6.26128 11.1463 4.37412 11.1463C3.56952 11.1463 2.88195 10.7659 2.42844 10.2685L1.55069 11H0.994783V1.92992C0.994783 1.62271 0.921637 1.5203 0.658312 1.40327L0.102404 1.12531V0.730327L2.48696 0.0281272H2.83806V5.19222C3.17453 4.66557 3.99376 3.89023 5.06169 3.89023C6.71479 3.89023 7.84123 5.36777 7.84123 7.2403ZM4.25709 5.07519C3.64266 5.07519 3.10138 5.42629 2.83806 5.77739V9.5956C3.14527 10.093 3.65729 10.2832 4.1108 10.2832C5.20798 10.2832 5.99796 9.25913 5.99796 7.60603C5.99796 6.14312 5.38353 5.07519 4.25709 5.07519ZM12.2745 10.3563V11H8.33921V10.3563C9.0853 10.3563 9.17307 10.3271 9.17307 10.0637V5.79202C9.17307 5.48481 9.0853 5.39703 8.8366 5.26537L8.26606 4.98741V4.59243L10.6652 3.89023H11.0017V5.82128C11.4698 5.0313 12.333 3.89023 13.1668 3.89023C13.869 3.89023 14.2786 4.35836 14.2786 4.98741C14.2786 5.61647 13.7959 5.96757 13.357 5.96757C12.7865 5.96757 12.6548 5.45555 12.2891 5.45555C11.9234 5.47018 11.3382 6.04071 11.0017 6.56736V10.0491C11.0017 10.3271 11.1187 10.3563 12.2745 10.3563ZM20.5551 9.40542C19.9992 10.5026 18.902 11.1463 17.6147 11.1463C15.8007 11.1463 14.1768 9.82967 14.1768 7.63529C14.1768 5.52869 15.7275 3.89023 17.6439 3.89023C19.6042 3.89023 20.5551 5.32388 20.5551 7.06475V7.45974H15.9908C16.0494 9.12747 16.9125 10.0491 18.1267 10.0491C18.9167 10.0491 19.4141 9.72726 19.9553 8.96655L20.5551 9.40542ZM17.5854 4.72409C16.7369 4.72409 16.1518 5.45555 16.0201 6.72828H18.8143C18.8143 5.6311 18.5363 4.72409 17.5854 4.72409ZM24.5349 10.3563V11H21.0385V10.3563C21.7846 10.3563 21.8724 10.3271 21.8724 10.0637V5.79202C21.8724 5.48481 21.7846 5.39703 21.5359 5.26537L20.9653 4.98741V4.59243L23.3645 3.89023H23.701V5.22148C24.1691 4.63631 25.0615 3.89023 26.1441 3.89023C27.5192 3.89023 28.1922 4.94353 28.1922 6.24552V10.0637C28.1922 10.3271 28.2653 10.3563 29.026 10.3563V11H25.5296V10.3563C26.2757 10.3563 26.3489 10.3271 26.3489 10.0637V6.58199C26.3489 5.66036 25.9832 5.10445 25.1639 5.10445C24.608 5.10445 24.0667 5.39703 23.701 5.77739V10.0637C23.701 10.3271 23.7888 10.3563 24.5349 10.3563ZM37.0288 10.7367L34.6442 11.1463H34.2931V9.85893C33.9713 10.3856 33.152 11.1463 32.0841 11.1463C30.4603 11.1463 29.2899 9.65412 29.2899 7.78158C29.2899 5.45555 30.8406 3.89023 32.6985 3.89023C33.3861 3.89023 33.942 4.18281 34.2931 4.51928V1.92992C34.2931 1.62271 34.22 1.5203 33.9566 1.40327L33.4007 1.12531V0.730327L35.7999 0.0281272H36.1364V9.53708C36.1364 9.8443 36.2242 9.9467 36.4728 10.0637L37.0288 10.3417V10.7367ZM31.1332 7.40123C31.1332 8.86414 31.85 9.97596 32.918 9.97596C33.5324 9.97596 33.9859 9.65412 34.2931 9.25913V5.45555C33.9859 4.94353 33.4885 4.70946 32.9472 4.70946C31.8939 4.70946 31.1332 5.76276 31.1332 7.40123ZM42.9249 11.1463C42.2081 11.1463 41.696 10.722 41.4473 10.0198C40.7744 10.722 39.9405 11.1463 39.1067 11.1463C38.0826 11.1463 37.3658 10.488 37.3658 9.55171C37.3658 8.1912 38.7263 7.41585 41.3742 6.69903V5.90905C41.3742 5.10445 41.0085 4.69483 40.2624 4.69483C39.7357 4.69483 39.253 4.94353 39.253 5.30926C39.253 5.45555 39.3554 5.61647 39.3554 5.85053C39.3554 6.31867 39.0189 6.6844 38.4776 6.6844C38.0095 6.6844 37.5852 6.36256 37.5852 5.77739C37.5852 4.70946 39.1506 3.89023 40.8037 3.89023C42.2666 3.89023 43.1882 4.53391 43.1882 5.89442V9.5956C43.1882 9.97596 43.3784 10.1369 43.5978 10.1369C43.8173 10.1369 44.0221 10.0491 44.2561 9.81504L44.5926 10.2832C44.1684 10.7806 43.5832 11.1463 42.9249 11.1463ZM41.3742 7.3866C40.0868 7.72307 39.1798 8.16194 39.1798 9.11284C39.1798 9.74189 39.5748 10.0784 40.1015 10.0784C40.555 10.0784 40.95 9.87355 41.3742 9.50783V7.3866ZM47.8701 10.3563V11H44.3738V10.3563C45.1199 10.3563 45.2076 10.3271 45.2076 10.0637V5.79202C45.2076 5.48481 45.1199 5.39703 44.8712 5.26537L44.3006 4.98741V4.59243L46.6998 3.89023H47.0363V5.22148C47.5044 4.63631 48.3968 3.89023 49.4793 3.89023C50.8545 3.89023 51.5274 4.94353 51.5274 6.24552V10.0637C51.5274 10.3271 51.6006 10.3563 52.3613 10.3563V11H48.8649V10.3563C49.611 10.3563 49.6842 10.3271 49.6842 10.0637V6.58199C49.6842 5.66036 49.3184 5.10445 48.4992 5.10445C47.9433 5.10445 47.402 5.39703 47.0363 5.77739V10.0637C47.0363 10.3271 47.124 10.3563 47.8701 10.3563ZM58.7408 10.3563V11H55.2444V10.3563C55.9905 10.3563 56.0783 10.3271 56.0783 10.0637V5.79202C56.0783 5.48481 55.9905 5.39703 55.7418 5.26537L55.1713 4.98741V4.59243L57.5704 3.89023H57.9069V5.22148C58.375 4.62168 59.2528 3.89023 60.2768 3.89023C61.3009 3.89023 61.9007 4.44613 62.164 5.26537C62.6614 4.66557 63.6269 3.89023 64.6802 3.89023C66.07 3.89023 66.699 4.94353 66.699 6.24552V10.0637C66.699 10.3271 66.7722 10.3563 67.5183 10.3563V11H64.0219V10.3563C64.7826 10.3563 64.8558 10.3271 64.8558 10.0637V6.58199C64.8558 5.67498 64.5047 5.10445 63.7147 5.10445C63.1734 5.10445 62.6321 5.39703 62.2664 5.79202C62.281 5.93831 62.2957 6.0846 62.2957 6.24552V10.0637C62.2957 10.3271 62.3834 10.3563 63.1295 10.3563V11H59.6332V10.3563C60.3792 10.3563 60.467 10.3271 60.467 10.0637V6.58199C60.467 5.67498 60.1159 5.10445 59.3259 5.10445C58.7847 5.10445 58.2873 5.3824 57.9069 5.77739V10.0637C57.9069 10.3271 57.9947 10.3563 58.7408 10.3563ZM71.2932 4.70946C70.3862 4.70946 69.6108 5.7335 69.6108 7.29882C69.6108 8.98118 70.4593 10.0345 71.6004 10.0345C72.3172 10.0345 72.8731 9.698 73.3852 8.93729L73.9411 9.36153C73.3852 10.4441 72.4343 11.1463 71.0884 11.1463C69.3914 11.1463 67.7968 9.8443 67.7968 7.69381C67.7968 5.55795 69.5231 3.89023 71.5126 3.89023C72.8731 3.89023 73.7801 4.63631 73.7801 5.3824C73.7801 5.87979 73.429 6.14312 72.9755 6.14312C71.9661 6.14312 72.2733 4.70946 71.2932 4.70946ZM77.5404 10.3563V11H74.0294V10.3563C74.7901 10.3563 74.8633 10.3271 74.8633 10.0637V1.92992C74.8633 1.62271 74.7901 1.5203 74.5268 1.40327L73.9709 1.12531V0.730327L76.3555 0.0281272H76.7066V7.62066L79.4715 5.20685C79.5592 5.13371 79.7055 4.98741 79.7055 4.89964C79.7055 4.70946 79.5154 4.6802 78.7254 4.6802V4.03652H82.0023V4.6802C81.3294 4.6802 80.9783 4.81186 80.6857 5.06056L78.857 6.62588L81.3294 9.97596C81.5488 10.2832 81.7536 10.3563 82.4558 10.3563V11H78.5791V10.3563C79.0911 10.3563 79.3252 10.3271 79.3252 10.1369C79.3252 10.0491 79.2667 9.96133 79.1935 9.8443L77.6428 7.66455L76.7066 8.46915V10.0637C76.7066 10.3271 76.7797 10.3563 77.5404 10.3563ZM87.957 11.1463C87.2401 11.1463 86.7281 10.722 86.4794 10.0198C85.8065 10.722 84.9726 11.1463 84.1388 11.1463C83.1147 11.1463 82.3979 10.488 82.3979 9.55171C82.3979 8.1912 83.7584 7.41585 86.4063 6.69903V5.90905C86.4063 5.10445 86.0406 4.69483 85.2945 4.69483C84.7678 4.69483 84.2851 4.94353 84.2851 5.30926C84.2851 5.45555 84.3875 5.61647 84.3875 5.85053C84.3875 6.31867 84.051 6.6844 83.5097 6.6844C83.0416 6.6844 82.6173 6.36256 82.6173 5.77739C82.6173 4.70946 84.1826 3.89023 85.8357 3.89023C87.2987 3.89023 88.2203 4.53391 88.2203 5.89442V9.5956C88.2203 9.97596 88.4105 10.1369 88.6299 10.1369C88.8494 10.1369 89.0542 10.0491 89.2882 9.81504L89.6247 10.2832C89.2005 10.7806 88.6153 11.1463 87.957 11.1463ZM86.4063 7.3866C85.1189 7.72307 84.2119 8.16194 84.2119 9.11284C84.2119 9.74189 84.6069 10.0784 85.1335 10.0784C85.587 10.0784 85.982 9.87355 86.4063 9.50783V7.3866ZM92.9022 11.5705C92.317 12.9457 91.4393 14.2477 90.1519 14.2477C89.4936 14.2477 88.9231 13.8234 88.9231 13.2236C88.9231 12.6677 89.3473 12.3751 89.7423 12.3751C90.4445 12.3751 90.4738 13.1212 90.8688 13.1212C91.2491 13.1212 91.7172 12.419 92.2585 11.1024L89.5814 5.01667C89.4497 4.70946 89.3766 4.69483 88.7914 4.6802V4.03652H92.4633V4.6802C91.7465 4.69483 91.5856 4.70946 91.5856 4.88501C91.5856 4.97278 91.6148 5.07519 91.6587 5.17759L93.1363 8.92266H93.1802L94.7455 5.17759C94.7894 5.07519 94.8186 4.97278 94.8186 4.88501C94.8186 4.70946 94.6577 4.69483 93.9409 4.6802V4.03652H96.501V4.6802C95.9158 4.69483 95.8573 4.70946 95.7256 5.01667L92.9022 11.5705Z" fill="#312E2E"/>
</svg>
