<svg width="118" height="195" viewBox="0 0 118 195" fill="none" xmlns="http://www.w3.org/2000/svg">
<path d="M0.0802431 102.186C0.0802431 74.0502 0.216254 45.9142 0.000508409 17.7782C-0.0698434 8.75443 7.1717 2.11323 15.1074 1.02512C16.3409 0.856274 17.5978 0.814064 18.8454 0.814064C45.8464 0.804684 72.8521 0.799993 99.8531 0.809373C107.043 0.809373 113.253 4.83818 115.635 11.2402C116.301 13.0318 116.681 15.0345 116.705 16.9481C116.883 32.1065 116.944 47.2697 117.047 62.4281C117.202 85.7943 117.361 109.156 117.516 132.522C117.582 142.291 117.629 152.056 117.727 161.826C117.751 164.269 116.813 166.07 114.599 167.121C112.385 168.167 110.368 167.726 108.483 166.234C101.035 160.339 93.4605 154.626 85.1261 150.011C83.2876 148.994 81.3365 148.173 79.437 147.258C75.2534 145.251 71.2715 145.696 67.2521 147.929C60.1888 151.845 53.6601 156.54 47.2441 161.394C34.1821 171.276 21.6642 181.824 9.29632 192.546C7.47186 194.127 5.50671 194.722 3.25545 193.719C0.961984 192.696 0.0661698 190.825 0.0661698 188.344C0.0896204 159.621 0.0802431 130.899 0.0802431 102.177V102.186ZM98.6431 77.5444C97.0719 76.1608 95.632 74.9695 94.2812 73.6844C89.1925 68.8348 84.1975 63.8821 79.0478 59.1028C74.3389 54.727 69.222 50.8576 63.2421 48.3484C52.9519 44.0288 42.7181 43.8787 32.7797 49.3755C17.4712 57.8412 11.904 77.4177 20.3415 92.7122C27.0531 104.874 40.3824 111.196 54.4246 109.039C62.4541 107.805 69.6581 104.644 75.6521 99.3159C83.494 92.3464 90.9184 84.9032 98.6431 77.5491V77.5444Z" fill="#36383F"/>
</svg>
