<?xml version="1.0" encoding="utf-8"?>
<!-- Generator: Adobe Illustrator 27.0.1, SVG Export Plug-In . SVG Version: 6.00 Build 0)  -->
<svg version="1.1" id="Layer_1" xmlns="http://www.w3.org/2000/svg" xmlns:xlink="http://www.w3.org/1999/xlink" x="0px" y="0px"
	 viewBox="0 0 326 188" style="enable-background:new 0 0 326 188;" xml:space="preserve">
<style type="text/css">
	.st0{fill-rule:evenodd;clip-rule:evenodd;fill:#79FFF7;fill-opacity:0.2;}
</style>
<g>
	<path class="st0" d="M266.1,188H59.6H49.5v-0.8C21.4,182.4,0,158.3,0,129.2c0-31.3,24.8-56.9,56.1-58.7c-0.8-3.8-1.2-7.7-1.2-11.7
		C54.9,26.3,81.6,0,114.5,0c27.7,0,51,18.7,57.7,44c9.7-6.8,21.6-10.8,34.4-10.8c25.2,0,46.8,15.4,55.5,37.3
		c1.4-0.1,2.7-0.1,4.1-0.1c32.9,0,59.6,26.3,59.6,58.8c0,29.6-22.2,54.1-51.1,58.2v0.6H266.1z"/>
</g>
</svg>
