<svg width="1728" height="379" viewBox="0 0 1728 379" fill="none" xmlns="http://www.w3.org/2000/svg">
<g clip-path="url(#clip0_2227_672)">
<rect width="1728" height="277" fill="url(#paint0_linear_2227_672)"/>
<g filter="url(#filter0_d_2227_672)">
<path d="M578.147 93.7811C579.045 91.0172 582.955 91.0172 583.853 93.7812L594.471 126.459C594.872 127.695 596.024 128.532 597.324 128.532H631.684C634.59 128.532 635.798 132.251 633.447 133.959L605.649 154.155C604.598 154.919 604.158 156.273 604.56 157.509L615.177 190.187C616.075 192.951 612.912 195.249 610.561 193.541L582.763 173.345C581.712 172.581 580.288 172.581 579.237 173.345L551.439 193.541C549.088 195.249 545.925 192.951 546.823 190.187L557.44 157.509C557.842 156.273 557.402 154.919 556.351 154.155L528.553 133.959C526.202 132.251 527.41 128.532 530.316 128.532H564.676C565.976 128.532 567.128 127.695 567.529 126.459L578.147 93.7811Z" fill="url(#paint1_linear_2227_672)"/>
</g>
<g filter="url(#filter1_d_2227_672)">
<path d="M-28.8532 93.7812C-27.9551 91.0172 -24.0449 91.0172 -23.1468 93.7812L-2.20151 158.244C-1.79989 159.48 -0.648021 160.317 0.651658 160.317H68.4321C71.3383 160.317 72.5466 164.036 70.1955 165.744L15.3599 205.585C14.3085 206.348 13.8685 207.703 14.2701 208.939L35.2154 273.402C36.1135 276.166 32.95 278.464 30.5989 276.756L-24.2366 236.915C-25.2881 236.152 -26.7119 236.152 -27.7634 236.915L-82.5989 276.756C-84.95 278.464 -88.1135 276.166 -87.2154 273.402L-66.2701 208.939C-65.8685 207.703 -66.3085 206.348 -67.3599 205.585L-122.195 165.744C-124.547 164.036 -123.338 160.317 -120.432 160.317H-52.6516C-51.352 160.317 -50.2001 159.48 -49.7985 158.244L-28.8532 93.7812Z" fill="url(#paint2_linear_2227_672)"/>
</g>
<g filter="url(#filter2_d_2227_672)">
<path d="M979.647 202.781C980.545 200.017 984.455 200.017 985.353 202.781L994.736 231.659C995.138 232.895 996.29 233.732 997.589 233.732H1027.95C1030.86 233.732 1032.07 237.45 1029.72 239.159L1005.15 257.006C1004.1 257.77 1003.66 259.124 1004.06 260.36L1013.44 289.237C1014.34 292.001 1011.18 294.3 1008.83 292.591L984.263 274.744C983.212 273.98 981.788 273.98 980.737 274.744L956.172 292.591C953.821 294.3 950.657 292.001 951.556 289.237L960.938 260.36C961.34 259.124 960.9 257.77 959.849 257.006L935.284 239.159C932.933 237.45 934.141 233.732 937.047 233.732H967.411C968.711 233.732 969.862 232.895 970.264 231.659L979.647 202.781Z" fill="url(#paint3_linear_2227_672)"/>
</g>
<g filter="url(#filter3_d_2227_672)">
<path d="M1561.15 115.781C1562.04 113.017 1565.96 113.017 1566.85 115.781L1577.25 147.768C1577.65 149.004 1578.8 149.841 1580.1 149.841H1613.73C1616.64 149.841 1617.85 153.56 1615.5 155.268L1588.29 175.037C1587.23 175.801 1586.79 177.155 1587.2 178.391L1597.59 210.378C1598.49 213.142 1595.32 215.44 1592.97 213.732L1565.76 193.963C1564.71 193.199 1563.29 193.199 1562.24 193.963L1535.03 213.732C1532.68 215.44 1529.51 213.142 1530.41 210.378L1540.8 178.391C1541.21 177.155 1540.77 175.801 1539.71 175.037L1512.5 155.268C1510.15 153.56 1511.36 149.841 1514.27 149.841H1547.9C1549.2 149.841 1550.35 149.004 1550.75 147.768L1561.15 115.781Z" fill="url(#paint4_linear_2227_672)"/>
</g>
<g filter="url(#filter4_d_2227_672)">
<path d="M1252.15 78.7811C1253.04 76.0172 1256.96 76.0172 1257.85 78.7812L1268.25 110.768C1268.65 112.004 1269.8 112.841 1271.1 112.841H1304.73C1307.64 112.841 1308.85 116.56 1306.5 118.268L1279.29 138.037C1278.23 138.801 1277.79 140.155 1278.2 141.391L1288.59 173.378C1289.49 176.142 1286.32 178.44 1283.97 176.732L1256.76 156.963C1255.71 156.199 1254.29 156.199 1253.24 156.963L1226.03 176.732C1223.68 178.44 1220.51 176.142 1221.41 173.378L1231.8 141.391C1232.21 140.155 1231.77 138.801 1230.71 138.037L1203.5 118.268C1201.15 116.56 1202.36 112.841 1205.27 112.841H1238.9C1240.2 112.841 1241.35 112.004 1241.75 110.768L1252.15 78.7811Z" fill="url(#paint5_linear_2227_672)"/>
</g>
</g>
<defs>
<filter id="filter0_d_2227_672" x="472.327" y="83.7692" width="217.346" height="212.387" filterUnits="userSpaceOnUse" color-interpolation-filters="sRGB">
<feFlood flood-opacity="0" result="BackgroundImageFix"/>
<feColorMatrix in="SourceAlpha" type="matrix" values="0 0 0 0 0 0 0 0 0 0 0 0 0 0 0 0 0 0 127 0" result="hardAlpha"/>
<feOffset dy="47.0448"/>
<feGaussianBlur stdDeviation="27.4918"/>
<feComposite in2="hardAlpha" operator="out"/>
<feColorMatrix type="matrix" values="0 0 0 0 0.458446 0 0 0 0 0.698848 0 0 0 0 0.872933 0 0 0 0.25 0"/>
<feBlend mode="normal" in2="BackgroundImageFix" result="effect1_dropShadow_2227_672"/>
<feBlend mode="normal" in="SourceGraphic" in2="effect1_dropShadow_2227_672" result="shape"/>
</filter>
<filter id="filter1_d_2227_672" x="-178.421" y="83.7692" width="304.842" height="295.601" filterUnits="userSpaceOnUse" color-interpolation-filters="sRGB">
<feFlood flood-opacity="0" result="BackgroundImageFix"/>
<feColorMatrix in="SourceAlpha" type="matrix" values="0 0 0 0 0 0 0 0 0 0 0 0 0 0 0 0 0 0 127 0" result="hardAlpha"/>
<feOffset dy="47.0448"/>
<feGaussianBlur stdDeviation="27.4918"/>
<feComposite in2="hardAlpha" operator="out"/>
<feColorMatrix type="matrix" values="0 0 0 0 0.458446 0 0 0 0 0.698848 0 0 0 0 0.872933 0 0 0 0.25 0"/>
<feBlend mode="normal" in2="BackgroundImageFix" result="effect1_dropShadow_2227_672"/>
<feBlend mode="normal" in="SourceGraphic" in2="effect1_dropShadow_2227_672" result="shape"/>
</filter>
<filter id="filter2_d_2227_672" x="879.057" y="192.769" width="206.885" height="202.437" filterUnits="userSpaceOnUse" color-interpolation-filters="sRGB">
<feFlood flood-opacity="0" result="BackgroundImageFix"/>
<feColorMatrix in="SourceAlpha" type="matrix" values="0 0 0 0 0 0 0 0 0 0 0 0 0 0 0 0 0 0 127 0" result="hardAlpha"/>
<feOffset dy="47.0448"/>
<feGaussianBlur stdDeviation="27.4918"/>
<feComposite in2="hardAlpha" operator="out"/>
<feColorMatrix type="matrix" values="0 0 0 0 0.458446 0 0 0 0 0.698848 0 0 0 0 0.872933 0 0 0 0.25 0"/>
<feBlend mode="normal" in2="BackgroundImageFix" result="effect1_dropShadow_2227_672"/>
<feBlend mode="normal" in="SourceGraphic" in2="effect1_dropShadow_2227_672" result="shape"/>
</filter>
<filter id="filter3_d_2227_672" x="1456.28" y="105.769" width="215.444" height="210.578" filterUnits="userSpaceOnUse" color-interpolation-filters="sRGB">
<feFlood flood-opacity="0" result="BackgroundImageFix"/>
<feColorMatrix in="SourceAlpha" type="matrix" values="0 0 0 0 0 0 0 0 0 0 0 0 0 0 0 0 0 0 127 0" result="hardAlpha"/>
<feOffset dy="47.0448"/>
<feGaussianBlur stdDeviation="27.4918"/>
<feComposite in2="hardAlpha" operator="out"/>
<feColorMatrix type="matrix" values="0 0 0 0 0.458446 0 0 0 0 0.698848 0 0 0 0 0.872933 0 0 0 0.25 0"/>
<feBlend mode="normal" in2="BackgroundImageFix" result="effect1_dropShadow_2227_672"/>
<feBlend mode="normal" in="SourceGraphic" in2="effect1_dropShadow_2227_672" result="shape"/>
</filter>
<filter id="filter4_d_2227_672" x="1147.28" y="68.7692" width="215.444" height="210.578" filterUnits="userSpaceOnUse" color-interpolation-filters="sRGB">
<feFlood flood-opacity="0" result="BackgroundImageFix"/>
<feColorMatrix in="SourceAlpha" type="matrix" values="0 0 0 0 0 0 0 0 0 0 0 0 0 0 0 0 0 0 127 0" result="hardAlpha"/>
<feOffset dy="47.0448"/>
<feGaussianBlur stdDeviation="27.4918"/>
<feComposite in2="hardAlpha" operator="out"/>
<feColorMatrix type="matrix" values="0 0 0 0 0.458446 0 0 0 0 0.698848 0 0 0 0 0.872933 0 0 0 0.25 0"/>
<feBlend mode="normal" in2="BackgroundImageFix" result="effect1_dropShadow_2227_672"/>
<feBlend mode="normal" in="SourceGraphic" in2="effect1_dropShadow_2227_672" result="shape"/>
</filter>
<linearGradient id="paint0_linear_2227_672" x1="713.634" y1="-9.26274" x2="713.634" y2="277" gradientUnits="userSpaceOnUse">
<stop stop-color="#8DECF6"/>
<stop offset="0.785231" stop-color="#8DECF6" stop-opacity="0"/>
</linearGradient>
<linearGradient id="paint1_linear_2227_672" x1="577.709" y1="103.806" x2="527.873" y2="216.642" gradientUnits="userSpaceOnUse">
<stop stop-color="#AEFFE7"/>
<stop offset="1" stop-color="#79DFFF"/>
</linearGradient>
<linearGradient id="paint2_linear_2227_672" x1="-31.694" y1="117.537" x2="-117.918" y2="312.761" gradientUnits="userSpaceOnUse">
<stop stop-color="#AEFFE7"/>
<stop offset="1" stop-color="#79DFFF"/>
</linearGradient>
<linearGradient id="paint3_linear_2227_672" x1="979.496" y1="211.164" x2="934.011" y2="314.149" gradientUnits="userSpaceOnUse">
<stop stop-color="#AEFFE7"/>
<stop offset="1" stop-color="#79DFFF"/>
</linearGradient>
<linearGradient id="paint4_linear_2227_672" x1="1560.76" y1="125.507" x2="1511.72" y2="236.552" gradientUnits="userSpaceOnUse">
<stop stop-color="#AEFFE7"/>
<stop offset="1" stop-color="#79DFFF"/>
</linearGradient>
<linearGradient id="paint5_linear_2227_672" x1="1251.76" y1="88.5075" x2="1202.72" y2="199.552" gradientUnits="userSpaceOnUse">
<stop stop-color="#AEFFE7"/>
<stop offset="1" stop-color="#79DFFF"/>
</linearGradient>
<clipPath id="clip0_2227_672">
<rect width="1728" height="379" fill="white"/>
</clipPath>
</defs>
</svg>
